<svg width="487" height="309" viewBox="0 0 487 309" fill="none" xmlns="http://www.w3.org/2000/svg">
<mask id="path-1-outside-1_20_14" maskUnits="userSpaceOnUse" x="0" y="91" width="486" height="128" fill="black">
<rect fill="white" y="91" width="486" height="128"/>
<path d="M7.92969 192.47C7.92969 188.026 8.83301 183.754 10.6396 179.652C11.4697 179.652 12.7637 179.823 14.5215 180.165C16.2793 180.458 18.1348 180.849 20.0879 181.337C19.8438 170.839 19.7217 160.585 19.7217 150.575C19.7217 139.784 19.917 130.58 20.3076 122.963H20.2344L20.3076 122.084L8.36914 120.546C7.63672 117.567 7.14844 115.102 6.9043 113.148C6.66016 111.146 6.5625 108.852 6.61133 106.264C8.17383 104.506 10.4688 102.968 13.4961 101.649C16.5723 100.282 19.8682 99.2568 23.3838 98.5732C26.9482 97.8408 30.1953 97.4746 33.125 97.4746C38.7402 97.4746 43.1104 98.5977 46.2354 100.844C49.4092 103.041 51.2158 106.557 51.6553 111.391C51.8018 113.295 51.875 115.37 51.875 117.616C51.875 125.038 51.2158 133.827 49.8975 143.983C48.5791 154.14 46.8213 166.005 44.624 179.579L44.0381 183.388L62.7148 184.413L70.332 160.097C72.627 159.999 75.2393 160.17 78.1689 160.609C81.1475 161.049 83.7109 161.659 85.8594 162.44C86.7383 164.735 87.5439 168.397 88.2764 173.427C89.0576 178.407 89.4482 183.29 89.4482 188.075C89.4482 196.034 88.2764 201.625 85.9326 204.848C84.7607 206.41 83.125 207.777 81.0254 208.949C78.9746 210.072 76.8018 210.927 74.5068 211.513C72.2607 212.147 70.2344 212.465 68.4277 212.465C65.5469 212.465 62.1777 211.854 58.3203 210.634C54.4629 209.364 50.6787 207.777 46.9678 205.873C43.2568 203.92 40.2051 201.967 37.8125 200.014C35.6152 203.822 33.0762 206.776 30.1953 208.876C27.3145 210.976 23.7256 212.172 19.4287 212.465C17.3291 212.123 15.4004 211.024 13.6426 209.169C11.8848 207.313 10.4932 204.921 9.46777 201.991C8.44238 199.062 7.92969 195.888 7.92969 192.47ZM104.343 155.629C104.343 116.859 119.577 97.4746 150.046 97.4746C162.106 97.4746 171.506 99.9893 178.244 105.019C185.031 109.999 189.694 116.737 192.233 125.233C194.821 133.681 196.115 143.812 196.115 155.629C196.115 173.012 192.551 186.83 185.422 197.084C178.293 207.338 166.501 212.465 150.046 212.465C133.493 212.465 121.726 207.387 114.743 197.23C107.81 187.074 104.343 173.207 104.343 155.629ZM153.708 189.101C157.712 189.101 160.007 188.881 160.593 188.441C161.813 186.293 162.741 182.558 163.376 177.235C164.011 171.864 164.328 165.858 164.328 159.218C164.328 152.235 163.986 145.766 163.303 139.809C162.668 133.803 161.765 129.604 160.593 127.211C159.372 126.234 157.565 125.502 155.173 125.014C152.78 124.525 150.144 124.257 147.263 124.208C145.603 124.208 144.089 124.306 142.722 124.501C141.403 124.647 140.451 124.892 139.865 125.233C138.449 127.675 137.399 131.215 136.716 135.854C136.081 140.443 135.764 145.692 135.764 151.601C135.764 158.29 136.13 164.955 136.862 171.596C137.595 178.236 138.498 183.314 139.572 186.83C140.256 187.562 141.989 188.124 144.772 188.515C147.556 188.905 150.534 189.101 153.708 189.101ZM216.503 155.043C216.503 143.91 218.114 134.047 221.337 125.453C224.56 116.811 229.638 109.999 236.571 105.019C243.554 99.9893 252.416 97.4746 263.158 97.4746C266.967 97.4746 271.093 97.7188 275.536 98.207C279.979 98.6465 284.325 99.3545 288.573 100.331C291.21 101.894 293.505 103.529 295.458 105.238C297.46 106.898 299.364 108.925 301.171 111.317C301.171 114.784 300.707 119.374 299.779 125.087C298.852 130.8 297.68 136.122 296.264 141.054C294.896 145.985 293.578 149.184 292.309 150.648C291.039 151.283 289.965 151.723 289.086 151.967C288.207 152.162 286.84 152.26 284.984 152.26C282.689 152.26 280.541 152.089 278.539 151.747C276.537 151.405 275.023 150.941 273.998 150.355L271.435 125.673C267.968 124.696 262.426 124.208 254.809 124.208C253.148 124.208 251.928 124.232 251.146 124.281C249.047 131.02 247.875 140.077 247.631 151.454V154.311C247.631 161.586 248.095 168.007 249.022 173.573C249.657 177.235 250.194 180.043 250.634 181.996C251.122 183.949 251.708 185.463 252.392 186.537C253.124 187.562 254.027 188.075 255.102 188.075C258.91 188.075 262.304 186.757 265.282 184.12C268.31 181.483 270.897 178.114 273.046 174.013L271.068 163.539C277.465 161.391 283.788 160.292 290.038 160.243C293.065 160.243 295.702 160.585 297.948 161.269C300.194 161.952 301.708 163.295 302.489 165.297C301.562 172.523 300.072 181.386 298.021 191.884C295.971 202.382 294.433 208.754 293.407 211C290.282 211.977 287.255 212.465 284.325 212.465C282.812 212.465 281.2 212.343 279.491 212.099C277.831 211.854 276.366 211.488 275.097 211C275.097 209.389 274.95 205.556 274.657 199.501L274.438 194.081L272.46 193.495C269.091 199.159 265.307 203.749 261.107 207.265C256.908 210.731 252.343 212.465 247.411 212.465C241.063 212.465 235.57 210.121 230.932 205.434C226.293 200.746 222.729 194.081 220.238 185.438C217.748 176.747 216.503 166.615 216.503 155.043ZM330.934 207.411C330.934 205.312 330.836 199.086 330.641 188.734C330.25 173.598 330.055 160.512 330.055 149.477C330.055 138.686 330.25 129.555 330.641 122.084L318.702 120.546C317.97 117.567 317.481 115.102 317.237 113.148C316.993 111.146 316.896 108.852 316.944 106.264C317.921 105.043 319.728 103.749 322.364 102.382C325.05 100.966 328.077 99.7939 331.446 98.8662C334.864 97.9385 338.16 97.4746 341.334 97.4746C346.998 97.4746 351.612 98.7441 355.177 101.283C358.79 103.822 360.694 107.484 360.89 112.27C360.987 115.102 361.036 117.519 361.036 119.521C361.036 128.749 360.646 139.882 359.864 152.919C359.083 165.907 358.033 181.264 356.715 198.988L355.982 209.315C352.125 211.464 347.73 212.538 342.799 212.538C338.6 212.538 334.645 211.781 330.934 210.268V207.411ZM385.745 187.489C386.185 187.636 387.112 187.978 388.528 188.515C389.993 189.003 391.604 189.418 393.362 189.76V120.766L381.863 116.884C380.74 114.247 380.179 111.22 380.179 107.802C380.179 105.019 380.618 102.528 381.497 100.331C385.013 99.4033 389.236 98.6953 394.168 98.207C399.148 97.6699 403.958 97.4014 408.597 97.4014C415.481 97.4014 421.561 97.9141 426.834 98.9395C429.275 103.676 432.889 112.587 437.674 125.673C442.508 138.759 448.318 155.922 455.105 177.162L456.351 177.016C454.935 164.955 453.519 150.819 452.103 134.608C450.735 118.349 450.052 107.216 450.052 101.21C452.591 100.038 455.423 99.1348 458.548 98.5C461.673 97.8164 464.554 97.4746 467.19 97.4746C471.487 97.4746 475.613 98.3535 479.568 100.111L472.464 192.689C475.003 196.352 476.59 200.648 477.225 205.58C475.223 207.777 472.171 209.486 468.069 210.707C464.017 211.879 459.695 212.465 455.105 212.465C451.541 212.465 448.294 212.099 445.364 211.366C442.483 210.634 440.237 209.511 438.626 207.997C438.675 204.335 438.992 200.99 439.578 197.963C435.916 190.639 432.376 182.582 428.958 173.793C425.589 164.955 421.292 153.236 416.067 138.637L412.845 129.701L412.405 129.774C413.431 137.392 414.529 148.622 415.701 163.466C416.873 178.261 417.459 189.076 417.459 195.912C417.459 201.381 415.823 205.507 412.552 208.29C409.329 211.073 404.275 212.465 397.391 212.465C395.242 212.465 392.947 212.05 390.506 211.22C388.064 210.39 385.843 209.34 383.841 208.07C381.888 206.752 380.521 205.482 379.739 204.262C379.739 200.746 380.276 197.401 381.351 194.228C382.425 191.054 383.89 188.808 385.745 187.489Z"/>
</mask>
<path d="M7.92969 192.47C7.92969 188.026 8.83301 183.754 10.6396 179.652C11.4697 179.652 12.7637 179.823 14.5215 180.165C16.2793 180.458 18.1348 180.849 20.0879 181.337C19.8438 170.839 19.7217 160.585 19.7217 150.575C19.7217 139.784 19.917 130.58 20.3076 122.963H20.2344L20.3076 122.084L8.36914 120.546C7.63672 117.567 7.14844 115.102 6.9043 113.148C6.66016 111.146 6.5625 108.852 6.61133 106.264C8.17383 104.506 10.4688 102.968 13.4961 101.649C16.5723 100.282 19.8682 99.2568 23.3838 98.5732C26.9482 97.8408 30.1953 97.4746 33.125 97.4746C38.7402 97.4746 43.1104 98.5977 46.2354 100.844C49.4092 103.041 51.2158 106.557 51.6553 111.391C51.8018 113.295 51.875 115.37 51.875 117.616C51.875 125.038 51.2158 133.827 49.8975 143.983C48.5791 154.14 46.8213 166.005 44.624 179.579L44.0381 183.388L62.7148 184.413L70.332 160.097C72.627 159.999 75.2393 160.17 78.1689 160.609C81.1475 161.049 83.7109 161.659 85.8594 162.44C86.7383 164.735 87.5439 168.397 88.2764 173.427C89.0576 178.407 89.4482 183.29 89.4482 188.075C89.4482 196.034 88.2764 201.625 85.9326 204.848C84.7607 206.41 83.125 207.777 81.0254 208.949C78.9746 210.072 76.8018 210.927 74.5068 211.513C72.2607 212.147 70.2344 212.465 68.4277 212.465C65.5469 212.465 62.1777 211.854 58.3203 210.634C54.4629 209.364 50.6787 207.777 46.9678 205.873C43.2568 203.92 40.2051 201.967 37.8125 200.014C35.6152 203.822 33.0762 206.776 30.1953 208.876C27.3145 210.976 23.7256 212.172 19.4287 212.465C17.3291 212.123 15.4004 211.024 13.6426 209.169C11.8848 207.313 10.4932 204.921 9.46777 201.991C8.44238 199.062 7.92969 195.888 7.92969 192.47ZM104.343 155.629C104.343 116.859 119.577 97.4746 150.046 97.4746C162.106 97.4746 171.506 99.9893 178.244 105.019C185.031 109.999 189.694 116.737 192.233 125.233C194.821 133.681 196.115 143.812 196.115 155.629C196.115 173.012 192.551 186.83 185.422 197.084C178.293 207.338 166.501 212.465 150.046 212.465C133.493 212.465 121.726 207.387 114.743 197.23C107.81 187.074 104.343 173.207 104.343 155.629ZM153.708 189.101C157.712 189.101 160.007 188.881 160.593 188.441C161.813 186.293 162.741 182.558 163.376 177.235C164.011 171.864 164.328 165.858 164.328 159.218C164.328 152.235 163.986 145.766 163.303 139.809C162.668 133.803 161.765 129.604 160.593 127.211C159.372 126.234 157.565 125.502 155.173 125.014C152.78 124.525 150.144 124.257 147.263 124.208C145.603 124.208 144.089 124.306 142.722 124.501C141.403 124.647 140.451 124.892 139.865 125.233C138.449 127.675 137.399 131.215 136.716 135.854C136.081 140.443 135.764 145.692 135.764 151.601C135.764 158.29 136.13 164.955 136.862 171.596C137.595 178.236 138.498 183.314 139.572 186.83C140.256 187.562 141.989 188.124 144.772 188.515C147.556 188.905 150.534 189.101 153.708 189.101ZM216.503 155.043C216.503 143.91 218.114 134.047 221.337 125.453C224.56 116.811 229.638 109.999 236.571 105.019C243.554 99.9893 252.416 97.4746 263.158 97.4746C266.967 97.4746 271.093 97.7188 275.536 98.207C279.979 98.6465 284.325 99.3545 288.573 100.331C291.21 101.894 293.505 103.529 295.458 105.238C297.46 106.898 299.364 108.925 301.171 111.317C301.171 114.784 300.707 119.374 299.779 125.087C298.852 130.8 297.68 136.122 296.264 141.054C294.896 145.985 293.578 149.184 292.309 150.648C291.039 151.283 289.965 151.723 289.086 151.967C288.207 152.162 286.84 152.26 284.984 152.26C282.689 152.26 280.541 152.089 278.539 151.747C276.537 151.405 275.023 150.941 273.998 150.355L271.435 125.673C267.968 124.696 262.426 124.208 254.809 124.208C253.148 124.208 251.928 124.232 251.146 124.281C249.047 131.02 247.875 140.077 247.631 151.454V154.311C247.631 161.586 248.095 168.007 249.022 173.573C249.657 177.235 250.194 180.043 250.634 181.996C251.122 183.949 251.708 185.463 252.392 186.537C253.124 187.562 254.027 188.075 255.102 188.075C258.91 188.075 262.304 186.757 265.282 184.12C268.31 181.483 270.897 178.114 273.046 174.013L271.068 163.539C277.465 161.391 283.788 160.292 290.038 160.243C293.065 160.243 295.702 160.585 297.948 161.269C300.194 161.952 301.708 163.295 302.489 165.297C301.562 172.523 300.072 181.386 298.021 191.884C295.971 202.382 294.433 208.754 293.407 211C290.282 211.977 287.255 212.465 284.325 212.465C282.812 212.465 281.2 212.343 279.491 212.099C277.831 211.854 276.366 211.488 275.097 211C275.097 209.389 274.95 205.556 274.657 199.501L274.438 194.081L272.46 193.495C269.091 199.159 265.307 203.749 261.107 207.265C256.908 210.731 252.343 212.465 247.411 212.465C241.063 212.465 235.57 210.121 230.932 205.434C226.293 200.746 222.729 194.081 220.238 185.438C217.748 176.747 216.503 166.615 216.503 155.043ZM330.934 207.411C330.934 205.312 330.836 199.086 330.641 188.734C330.25 173.598 330.055 160.512 330.055 149.477C330.055 138.686 330.25 129.555 330.641 122.084L318.702 120.546C317.97 117.567 317.481 115.102 317.237 113.148C316.993 111.146 316.896 108.852 316.944 106.264C317.921 105.043 319.728 103.749 322.364 102.382C325.05 100.966 328.077 99.7939 331.446 98.8662C334.864 97.9385 338.16 97.4746 341.334 97.4746C346.998 97.4746 351.612 98.7441 355.177 101.283C358.79 103.822 360.694 107.484 360.89 112.27C360.987 115.102 361.036 117.519 361.036 119.521C361.036 128.749 360.646 139.882 359.864 152.919C359.083 165.907 358.033 181.264 356.715 198.988L355.982 209.315C352.125 211.464 347.73 212.538 342.799 212.538C338.6 212.538 334.645 211.781 330.934 210.268V207.411ZM385.745 187.489C386.185 187.636 387.112 187.978 388.528 188.515C389.993 189.003 391.604 189.418 393.362 189.76V120.766L381.863 116.884C380.74 114.247 380.179 111.22 380.179 107.802C380.179 105.019 380.618 102.528 381.497 100.331C385.013 99.4033 389.236 98.6953 394.168 98.207C399.148 97.6699 403.958 97.4014 408.597 97.4014C415.481 97.4014 421.561 97.9141 426.834 98.9395C429.275 103.676 432.889 112.587 437.674 125.673C442.508 138.759 448.318 155.922 455.105 177.162L456.351 177.016C454.935 164.955 453.519 150.819 452.103 134.608C450.735 118.349 450.052 107.216 450.052 101.21C452.591 100.038 455.423 99.1348 458.548 98.5C461.673 97.8164 464.554 97.4746 467.19 97.4746C471.487 97.4746 475.613 98.3535 479.568 100.111L472.464 192.689C475.003 196.352 476.59 200.648 477.225 205.58C475.223 207.777 472.171 209.486 468.069 210.707C464.017 211.879 459.695 212.465 455.105 212.465C451.541 212.465 448.294 212.099 445.364 211.366C442.483 210.634 440.237 209.511 438.626 207.997C438.675 204.335 438.992 200.99 439.578 197.963C435.916 190.639 432.376 182.582 428.958 173.793C425.589 164.955 421.292 153.236 416.067 138.637L412.845 129.701L412.405 129.774C413.431 137.392 414.529 148.622 415.701 163.466C416.873 178.261 417.459 189.076 417.459 195.912C417.459 201.381 415.823 205.507 412.552 208.29C409.329 211.073 404.275 212.465 397.391 212.465C395.242 212.465 392.947 212.05 390.506 211.22C388.064 210.39 385.843 209.34 383.841 208.07C381.888 206.752 380.521 205.482 379.739 204.262C379.739 200.746 380.276 197.401 381.351 194.228C382.425 191.054 383.89 188.808 385.745 187.489Z" fill="black"/>
<path d="M10.6396 179.652V173.652H6.72623L5.14872 177.234L10.6396 179.652ZM14.5215 180.165L13.3763 186.055L13.4555 186.07L13.5351 186.083L14.5215 180.165ZM20.0879 181.337L18.6327 187.158L26.2693 189.067L26.0863 181.197L20.0879 181.337ZM20.3076 122.963L26.2997 123.27L26.6232 116.963H20.3076V122.963ZM20.2344 122.963L14.2551 122.465L13.7136 128.963H20.2344V122.963ZM20.3076 122.084L26.2869 122.582L26.7632 116.866L21.0743 116.133L20.3076 122.084ZM8.36914 120.546L2.54271 121.979L3.52452 125.971L7.60247 126.497L8.36914 120.546ZM6.9043 113.148L0.948422 113.875L0.949512 113.884L0.95063 113.893L6.9043 113.148ZM6.61133 106.264L2.12687 102.277L0.654212 103.934L0.612396 106.15L6.61133 106.264ZM13.4961 101.649L15.8917 107.15L15.9123 107.141L15.9329 107.132L13.4961 101.649ZM23.3838 98.5732L24.529 104.463L24.5603 104.457L24.5914 104.45L23.3838 98.5732ZM46.2354 100.844L42.7335 105.716L42.7765 105.747L42.8201 105.777L46.2354 100.844ZM51.6553 111.391L57.6376 110.93L57.6344 110.889L57.6306 110.847L51.6553 111.391ZM44.624 179.579L38.7011 178.62L38.6974 178.644L38.6938 178.667L44.624 179.579ZM44.0381 183.388L38.1079 182.475L37.1016 189.016L43.7092 189.379L44.0381 183.388ZM62.7148 184.413L62.3859 190.404L67.0455 190.66L68.4405 186.207L62.7148 184.413ZM70.332 160.097L70.0769 154.102L65.8662 154.281L64.6064 158.303L70.332 160.097ZM78.1689 160.609L77.2789 166.543L77.286 166.544L77.2932 166.545L78.1689 160.609ZM85.8594 162.44L91.4625 160.295L90.4832 157.737L87.9098 156.802L85.8594 162.44ZM88.2764 173.427L82.339 174.291L82.3437 174.324L82.3489 174.357L88.2764 173.427ZM85.9326 204.848L90.7326 208.448L90.7591 208.412L90.785 208.377L85.9326 204.848ZM81.0254 208.949L83.9073 214.212L83.9285 214.2L83.9496 214.188L81.0254 208.949ZM74.5068 211.513L73.0225 205.699L72.9486 205.718L72.8751 205.739L74.5068 211.513ZM58.3203 210.634L56.4446 216.333L56.4773 216.344L56.5101 216.354L58.3203 210.634ZM46.9678 205.873L44.1733 211.183L44.2008 211.197L44.2284 211.211L46.9678 205.873ZM37.8125 200.014L41.6068 195.366L36.1412 190.904L32.6154 197.015L37.8125 200.014ZM19.4287 212.465L18.4647 218.387L19.1471 218.498L19.8369 218.451L19.4287 212.465ZM13.9297 192.47C13.9297 188.867 14.6566 185.417 16.1306 182.071L5.14872 177.234C3.00937 182.091 1.92969 187.186 1.92969 192.47H13.9297ZM10.6396 185.652C10.8537 185.652 11.6664 185.722 13.3763 186.055L15.6667 174.275C13.8609 173.924 12.0857 173.652 10.6396 173.652V185.652ZM13.5351 186.083C15.1168 186.347 16.815 186.703 18.6327 187.158L21.5431 175.516C19.4545 174.994 17.4418 174.569 15.5079 174.247L13.5351 186.083ZM26.0863 181.197C25.8432 170.744 25.7217 160.536 25.7217 150.575H13.7217C13.7217 160.634 13.8443 170.934 14.0895 181.476L26.0863 181.197ZM25.7217 150.575C25.7217 139.848 25.916 130.753 26.2997 123.27L14.3155 122.656C13.918 130.407 13.7217 139.72 13.7217 150.575H25.7217ZM20.3076 116.963H20.2344V128.963H20.3076V116.963ZM26.2136 123.461L26.2869 122.582L14.3283 121.586L14.2551 122.465L26.2136 123.461ZM21.0743 116.133L9.13581 114.595L7.60247 126.497L19.5409 128.035L21.0743 116.133ZM14.1956 119.113C13.4919 116.251 13.0618 114.035 12.858 112.404L0.95063 113.893C1.23504 116.168 1.78158 118.883 2.54271 121.979L14.1956 119.113ZM12.8602 112.422C12.6579 110.764 12.5653 108.758 12.6103 106.377L0.612396 106.15C0.559676 108.945 0.662383 111.529 0.948422 113.875L12.8602 112.422ZM11.0958 110.25C11.8958 109.35 13.3612 108.252 15.8917 107.15L11.1005 96.1484C7.57625 97.6832 4.45187 99.6619 2.12687 102.277L11.0958 110.25ZM15.9329 107.132C18.5698 105.96 21.4297 105.066 24.529 104.463L22.2386 92.6835C18.3067 93.4481 14.5747 94.6041 11.0593 96.1665L15.9329 107.132ZM24.5914 104.45C27.8497 103.781 30.6845 103.475 33.125 103.475V91.4746C29.7061 91.4746 26.0468 91.9007 22.1761 92.696L24.5914 104.45ZM33.125 103.475C38.0352 103.475 41.0003 104.47 42.7335 105.716L49.7372 95.9717C45.2204 92.7252 39.4453 91.4746 33.125 91.4746V103.475ZM42.8201 105.777C44.1679 106.71 45.3564 108.375 45.6799 111.934L57.6306 110.847C57.0752 104.738 54.6505 99.372 49.6506 95.9106L42.8201 105.777ZM45.6729 111.851C45.8058 113.578 45.875 115.498 45.875 117.616H57.875C57.875 115.242 57.7977 113.012 57.6376 110.93L45.6729 111.851ZM45.875 117.616C45.875 124.704 45.244 133.222 43.9474 143.211L55.8475 144.756C57.1876 134.432 57.875 125.372 57.875 117.616H45.875ZM43.9474 143.211C42.6393 153.288 40.8915 165.089 38.7011 178.62L50.5469 180.538C52.7511 166.921 54.5189 154.991 55.8475 144.756L43.9474 143.211ZM38.6938 178.667L38.1079 182.475L49.9683 184.3L50.5543 180.491L38.6938 178.667ZM43.7092 189.379L62.3859 190.404L63.0438 178.422L44.367 177.397L43.7092 189.379ZM68.4405 186.207L76.0577 161.89L64.6064 158.303L56.9892 182.62L68.4405 186.207ZM70.5871 166.091C72.4079 166.014 74.6255 166.145 77.2789 166.543L79.059 154.676C75.8531 154.195 72.846 153.984 70.0769 154.102L70.5871 166.091ZM77.2932 166.545C79.9891 166.943 82.1388 167.472 83.8089 168.079L87.9098 156.802C85.2831 155.846 82.3058 155.155 79.0447 154.674L77.2932 166.545ZM80.2562 164.586C80.885 166.228 81.6178 169.339 82.339 174.291L94.2137 172.562C93.4701 167.456 92.5916 163.243 91.4625 160.295L80.2562 164.586ZM82.3489 174.357C83.0844 179.046 83.4482 183.617 83.4482 188.075H95.4482C95.4482 182.963 95.0308 177.769 94.2039 172.497L82.3489 174.357ZM83.4482 188.075C83.4482 195.821 82.2341 199.732 81.0802 201.319L90.785 208.377C94.3186 203.518 95.4482 196.247 95.4482 188.075H83.4482ZM81.1326 201.248C80.5667 202.002 79.6328 202.855 78.1012 203.71L83.9496 214.188C86.6172 212.7 88.9548 210.818 90.7326 208.448L81.1326 201.248ZM78.1435 203.687C76.5394 204.565 74.8367 205.236 73.0225 205.699L75.9911 217.326C78.7668 216.618 81.4098 215.579 83.9073 214.212L78.1435 203.687ZM72.8751 205.739C71.014 206.265 69.5492 206.465 68.4277 206.465V218.465C70.9196 218.465 73.5075 218.03 76.1386 217.287L72.8751 205.739ZM68.4277 206.465C66.3536 206.465 63.6197 206.018 60.1306 204.913L56.5101 216.354C60.7357 217.691 64.7402 218.465 68.4277 218.465V206.465ZM60.196 204.935C56.6434 203.765 53.1475 202.3 49.7071 200.535L44.2284 211.211C48.2099 213.254 52.2824 214.963 56.4446 216.333L60.196 204.935ZM49.7623 200.564C46.2892 198.736 43.6013 196.994 41.6068 195.366L34.0182 204.662C36.8088 206.94 40.2245 209.104 44.1733 211.183L49.7623 200.564ZM32.6154 197.015C30.7419 200.263 28.7259 202.522 26.6614 204.027L33.7292 213.725C37.4264 211.03 40.4886 207.382 43.0096 203.012L32.6154 197.015ZM26.6614 204.027C24.8688 205.334 22.4256 206.247 19.0206 206.479L19.8369 218.451C25.0255 218.097 29.7601 216.618 33.7292 213.725L26.6614 204.027ZM20.3928 206.543C19.8354 206.452 19.0401 206.142 17.9983 205.042L9.28686 213.295C11.7606 215.907 14.8228 217.794 18.4647 218.387L20.3928 206.543ZM17.9983 205.042C16.9336 203.919 15.9354 202.308 15.1309 200.009L3.80462 203.973C5.05096 207.534 6.8359 210.708 9.28686 213.295L17.9983 205.042ZM15.1309 200.009C14.3499 197.778 13.9297 195.281 13.9297 192.47H1.92969C1.92969 196.495 2.53486 200.345 3.80462 203.973L15.1309 200.009ZM178.244 105.019L174.655 109.827L174.675 109.841L174.694 109.856L178.244 105.019ZM192.233 125.233L186.485 126.951L186.491 126.971L186.497 126.991L192.233 125.233ZM114.743 197.23L109.788 200.613L109.793 200.622L109.799 200.63L114.743 197.23ZM160.593 188.441L164.193 193.241L165.192 192.492L165.81 191.405L160.593 188.441ZM163.376 177.235L169.334 177.946L169.335 177.94L163.376 177.235ZM163.303 139.809L157.336 140.439L157.339 140.466L157.342 140.493L163.303 139.809ZM160.593 127.211L165.981 124.572L165.39 123.365L164.341 122.526L160.593 127.211ZM147.263 124.208L147.364 118.209L147.314 118.208H147.263V124.208ZM142.722 124.501L143.384 130.464L143.477 130.454L143.57 130.441L142.722 124.501ZM139.865 125.233L136.842 120.051L135.471 120.85L134.675 122.223L139.865 125.233ZM136.716 135.854L130.78 134.979L130.776 135.005L130.772 135.032L136.716 135.854ZM139.572 186.83L133.834 188.583L134.239 189.91L135.186 190.924L139.572 186.83ZM110.343 155.629C110.343 136.867 114.057 123.902 120.486 115.721C126.699 107.815 136.173 103.475 150.046 103.475V91.4746C133.45 91.4746 120.072 96.8268 111.051 108.306C102.246 119.509 98.3428 135.621 98.3428 155.629H110.343ZM150.046 103.475C161.356 103.475 169.318 105.843 174.655 109.827L181.833 100.21C173.694 94.1356 162.857 91.4746 150.046 91.4746V103.475ZM174.694 109.856C180.37 114.021 184.298 119.635 186.485 126.951L197.982 123.515C195.09 113.839 189.692 105.977 181.794 100.181L174.694 109.856ZM186.497 126.991C188.862 134.714 190.115 144.221 190.115 155.629H202.115C202.115 143.404 200.78 132.648 197.97 123.476L186.497 126.991ZM190.115 155.629C190.115 172.252 186.7 184.735 180.495 193.659L190.348 200.509C198.402 188.926 202.115 173.771 202.115 155.629H190.115ZM180.495 193.659C174.831 201.806 165.225 206.465 150.046 206.465V218.465C167.777 218.465 181.755 212.869 190.348 200.509L180.495 193.659ZM150.046 206.465C134.724 206.465 125.186 201.829 119.687 193.831L109.799 200.63C118.265 212.944 132.262 218.465 150.046 218.465V206.465ZM119.699 193.847C113.68 185.032 110.343 172.497 110.343 155.629H98.3428C98.3428 173.917 101.939 189.117 109.788 200.613L119.699 193.847ZM153.708 195.101C155.784 195.101 157.578 195.045 159.004 194.908C159.71 194.841 160.46 194.741 161.171 194.579C161.685 194.461 162.985 194.147 164.193 193.241L156.993 183.641C157.529 183.239 157.991 183.052 158.164 182.986C158.273 182.945 158.356 182.919 158.406 182.904C158.457 182.89 158.488 182.882 158.495 182.881C158.504 182.879 158.457 182.89 158.34 182.907C158.225 182.924 158.068 182.943 157.86 182.963C156.992 183.046 155.636 183.101 153.708 183.101V195.101ZM165.81 191.405C167.669 188.133 168.689 183.349 169.334 177.946L157.418 176.525C156.793 181.766 155.958 184.453 155.376 185.477L165.81 191.405ZM169.335 177.94C170.002 172.289 170.328 166.043 170.328 159.218H158.328C158.328 165.674 158.019 171.439 157.417 176.531L169.335 177.94ZM170.328 159.218C170.328 152.043 169.977 145.342 169.264 139.125L157.342 140.493C157.996 146.189 158.328 152.428 158.328 159.218H170.328ZM169.27 139.178C168.631 133.134 167.659 127.997 165.981 124.572L155.204 129.85C155.87 131.21 156.705 134.472 157.336 140.439L169.27 139.178ZM164.341 122.526C162.075 120.713 159.224 119.717 156.373 119.135L153.973 130.892C155.906 131.287 156.669 131.756 156.845 131.896L164.341 122.526ZM156.373 119.135C153.561 118.561 150.55 118.263 147.364 118.209L147.161 130.207C149.737 130.251 152 130.49 153.973 130.892L156.373 119.135ZM147.263 118.208C145.373 118.208 143.571 118.319 141.873 118.561L143.57 130.441C144.607 130.293 145.832 130.208 147.263 130.208V118.208ZM142.059 118.538C140.553 118.705 138.556 119.051 136.842 120.051L142.888 130.416C142.699 130.527 142.562 130.582 142.509 130.602C142.455 130.623 142.449 130.621 142.509 130.606C142.638 130.573 142.915 130.516 143.384 130.464L142.059 118.538ZM134.675 122.223C132.707 125.617 131.511 130.019 130.78 134.979L142.652 136.728C143.288 132.411 144.192 129.733 145.055 128.244L134.675 122.223ZM130.772 135.032C130.091 139.956 129.764 145.488 129.764 151.601H141.764C141.764 145.897 142.071 140.931 142.659 136.675L130.772 135.032ZM129.764 151.601C129.764 158.51 130.142 165.394 130.898 172.253L142.826 170.938C142.118 164.516 141.764 158.071 141.764 151.601H129.764ZM130.898 172.253C131.644 179.017 132.596 184.532 133.834 188.583L145.31 185.077C144.4 182.097 143.545 177.455 142.826 170.938L130.898 172.253ZM135.186 190.924C136.584 192.422 138.375 193.132 139.536 193.509C140.86 193.938 142.366 194.236 143.939 194.456L145.606 182.573C144.396 182.403 143.643 182.225 143.234 182.093C143.037 182.029 143.018 182.007 143.114 182.058C143.193 182.1 143.549 182.297 143.959 182.736L135.186 190.924ZM143.939 194.456C147.031 194.89 150.29 195.101 153.708 195.101V183.101C150.778 183.101 148.081 182.92 145.606 182.573L143.939 194.456ZM221.337 125.453L226.955 127.56L226.959 127.549L221.337 125.453ZM236.571 105.019L240.072 109.892L240.078 109.887L236.571 105.019ZM275.536 98.207L274.881 104.171L274.913 104.175L274.946 104.178L275.536 98.207ZM288.573 100.331L291.632 95.1693L290.828 94.6929L289.917 94.4836L288.573 100.331ZM295.458 105.238L291.507 109.754L291.567 109.806L291.628 109.857L295.458 105.238ZM301.171 111.317H307.171V109.307L305.959 107.702L301.171 111.317ZM296.264 141.054L290.497 139.398L290.489 139.424L290.482 139.451L296.264 141.054ZM292.309 150.648L294.992 156.015L296.06 155.481L296.843 154.578L292.309 150.648ZM289.086 151.967L290.388 157.824L290.541 157.79L290.692 157.748L289.086 151.967ZM273.998 150.355L268.03 150.975L268.348 154.037L271.021 155.565L273.998 150.355ZM271.435 125.673L277.402 125.053L276.982 121.002L273.061 119.898L271.435 125.673ZM251.146 124.281L250.772 118.293L246.648 118.551L245.418 122.496L251.146 124.281ZM247.631 151.454L241.632 151.325L241.631 151.39V151.454H247.631ZM249.022 173.573L243.104 174.56L243.107 174.579L243.111 174.598L249.022 173.573ZM250.634 181.996L244.78 183.313L244.796 183.382L244.813 183.451L250.634 181.996ZM252.392 186.537L247.33 189.758L247.416 189.894L247.509 190.025L252.392 186.537ZM265.282 184.12L261.342 179.596L261.323 179.612L261.305 179.628L265.282 184.12ZM273.046 174.013L278.361 176.797L279.329 174.949L278.942 172.899L273.046 174.013ZM271.068 163.539L269.158 157.851L264.203 159.516L265.173 164.652L271.068 163.539ZM290.038 160.243V154.243H290.015L289.991 154.243L290.038 160.243ZM302.489 165.297L308.44 166.061L308.635 164.542L308.079 163.116L302.489 165.297ZM293.407 211L295.197 216.727L297.753 215.928L298.865 213.492L293.407 211ZM279.491 212.099L278.618 218.035L278.63 218.037L278.643 218.038L279.491 212.099ZM275.097 211H269.097V215.121L272.943 216.6L275.097 211ZM274.657 199.501L268.662 199.744L268.663 199.767L268.664 199.791L274.657 199.501ZM274.438 194.081L280.433 193.838L280.259 189.548L276.142 188.328L274.438 194.081ZM272.46 193.495L274.164 187.742L269.689 186.416L267.303 190.428L272.46 193.495ZM261.107 207.265L264.927 211.892L264.943 211.878L264.959 211.865L261.107 207.265ZM220.238 185.438L214.47 187.091L214.473 187.1L220.238 185.438ZM222.503 155.043C222.503 144.481 224.032 135.354 226.955 127.56L215.719 123.346C212.196 132.74 210.503 143.339 210.503 155.043H222.503ZM226.959 127.549C229.801 119.928 234.184 114.121 240.072 109.892L233.071 100.145C225.092 105.877 219.319 113.693 215.715 123.357L226.959 127.549ZM240.078 109.887C245.81 105.759 253.359 103.475 263.158 103.475V91.4746C251.473 91.4746 241.298 94.2198 233.065 100.15L240.078 109.887ZM263.158 103.475C266.714 103.475 270.619 103.703 274.881 104.171L276.192 92.2429C271.567 91.7347 267.219 91.4746 263.158 91.4746V103.475ZM274.946 104.178C279.142 104.593 283.235 105.26 287.229 106.179L289.917 94.4836C285.415 93.4485 280.817 92.7001 276.127 92.2362L274.946 104.178ZM285.514 105.493C287.89 106.9 289.875 108.326 291.507 109.754L299.409 100.723C297.135 98.7327 294.53 96.8868 291.632 95.1693L285.514 105.493ZM291.628 109.857C293.223 111.18 294.814 112.856 296.383 114.933L305.959 107.702C303.914 104.994 301.696 102.617 299.288 100.62L291.628 109.857ZM295.171 111.317C295.171 114.32 294.762 118.55 293.857 124.125L305.702 126.049C306.652 120.198 307.171 115.248 307.171 111.317H295.171ZM293.857 124.125C292.962 129.633 291.84 134.721 290.497 139.398L302.031 142.71C303.52 137.523 304.741 131.967 305.702 126.049L293.857 124.125ZM290.482 139.451C289.835 141.783 289.237 143.566 288.702 144.864C288.437 145.509 288.208 145.982 288.024 146.313C287.832 146.658 287.74 146.759 287.774 146.719L296.843 154.578C298.111 153.115 299.052 151.243 299.797 149.438C300.58 147.538 301.325 145.256 302.046 142.657L290.482 139.451ZM289.625 145.282C288.533 145.828 287.842 146.085 287.48 146.186L290.692 157.748C292.087 157.36 293.545 156.738 294.992 156.015L289.625 145.282ZM287.784 146.11C287.58 146.155 286.761 146.26 284.984 146.26V158.26C286.919 158.26 288.834 158.169 290.388 157.824L287.784 146.11ZM284.984 146.26C282.985 146.26 281.178 146.111 279.549 145.833L277.529 157.661C279.904 158.067 282.394 158.26 284.984 158.26V146.26ZM279.549 145.833C277.815 145.537 277.105 145.22 276.975 145.146L271.021 155.565C272.942 156.663 275.259 157.274 277.529 157.661L279.549 145.833ZM279.966 149.736L277.402 125.053L265.467 126.293L268.03 150.975L279.966 149.736ZM273.061 119.898C268.75 118.683 262.506 118.208 254.809 118.208V130.208C262.346 130.208 267.186 130.709 269.808 131.448L273.061 119.898ZM254.809 118.208C253.129 118.208 251.752 118.232 250.772 118.293L251.521 130.27C252.104 130.233 253.167 130.208 254.809 130.208V118.208ZM245.418 122.496C243.081 129.997 241.882 139.685 241.632 151.325L253.629 151.583C253.868 140.469 255.013 132.042 256.875 126.066L245.418 122.496ZM241.631 151.454V154.311H253.631V151.454H241.631ZM241.631 154.311C241.631 161.827 242.109 168.59 243.104 174.56L254.941 172.587C254.08 167.424 253.631 161.345 253.631 154.311H241.631ZM243.111 174.598C243.751 178.29 244.308 181.214 244.78 183.313L256.487 180.679C256.081 178.872 255.564 176.18 254.934 172.549L243.111 174.598ZM244.813 183.451C245.378 185.711 246.159 187.919 247.33 189.758L257.454 183.316C257.257 183.007 256.866 182.188 256.455 180.541L244.813 183.451ZM247.509 190.025C249.145 192.315 251.736 194.075 255.102 194.075V182.075C255.566 182.075 256.097 182.198 256.58 182.473C257.031 182.728 257.239 183.001 257.274 183.05L247.509 190.025ZM255.102 194.075C260.445 194.075 265.237 192.173 269.259 188.613L261.305 179.628C259.37 181.34 257.375 182.075 255.102 182.075V194.075ZM269.223 188.645C272.892 185.449 275.919 181.459 278.361 176.797L267.731 171.229C265.876 174.77 263.727 177.518 261.342 179.596L269.223 188.645ZM278.942 172.899L276.964 162.426L265.173 164.652L267.15 175.126L278.942 172.899ZM272.979 169.227C278.822 167.264 284.517 166.286 290.085 166.243L289.991 154.243C283.059 154.298 276.107 155.517 269.158 157.851L272.979 169.227ZM290.038 166.243C292.635 166.243 294.658 166.539 296.201 167.009L299.695 155.529C296.746 154.631 293.496 154.243 290.038 154.243V166.243ZM296.201 167.009C296.63 167.139 296.771 167.263 296.786 167.277C296.799 167.288 296.807 167.297 296.819 167.314C296.831 167.331 296.861 167.38 296.9 167.478L308.079 163.116C306.562 159.228 303.513 156.69 299.695 155.529L296.201 167.009ZM296.538 164.533C295.633 171.586 294.169 180.31 292.133 190.733L303.91 193.034C305.976 182.461 307.49 173.461 308.44 166.061L296.538 164.533ZM292.133 190.733C291.115 195.943 290.237 200.064 289.497 203.129C288.718 206.358 288.191 207.979 287.949 208.508L298.865 213.492C299.649 211.775 300.404 209.087 301.162 205.944C301.961 202.637 302.877 198.323 303.91 193.034L292.133 190.733ZM291.618 205.273C289.005 206.09 286.581 206.465 284.325 206.465V218.465C287.928 218.465 291.56 217.863 295.197 216.727L291.618 205.273ZM284.325 206.465C283.132 206.465 281.806 206.368 280.34 206.159L278.643 218.038C280.594 218.317 282.491 218.465 284.325 218.465V206.465ZM280.364 206.162C279.045 205.968 278.024 205.697 277.251 205.4L272.943 216.6C274.708 217.279 276.617 217.741 278.618 218.035L280.364 206.162ZM281.097 211C281.097 209.212 280.941 205.218 280.65 199.211L268.664 199.791C268.96 205.894 269.097 209.565 269.097 211H281.097ZM280.652 199.258L280.433 193.838L268.442 194.324L268.662 199.744L280.652 199.258ZM276.142 188.328L274.164 187.742L270.755 199.248L272.733 199.834L276.142 188.328ZM267.303 190.428C264.212 195.626 260.844 199.66 257.256 202.664L264.959 211.865C269.77 207.838 273.97 202.693 277.617 196.562L267.303 190.428ZM257.288 202.638C254.044 205.316 250.801 206.465 247.411 206.465V218.465C253.884 218.465 259.773 216.147 264.927 211.892L257.288 202.638ZM247.411 206.465C242.734 206.465 238.757 204.811 235.196 201.213L226.667 209.654C232.383 215.431 239.393 218.465 247.411 218.465V206.465ZM235.196 201.213C231.475 197.452 228.312 191.79 226.004 183.777L214.473 187.1C217.145 196.372 221.111 204.04 226.667 209.654L235.196 201.213ZM226.006 183.786C223.706 175.758 222.503 166.204 222.503 155.043H210.503C210.503 167.026 211.79 177.737 214.47 187.091L226.006 183.786ZM330.641 188.734L336.64 188.621L336.639 188.6L336.639 188.58L330.641 188.734ZM330.641 122.084L336.632 122.397L336.923 116.844L331.407 116.133L330.641 122.084ZM318.702 120.546L312.876 121.979L313.858 125.971L317.935 126.497L318.702 120.546ZM317.237 113.148L311.281 113.875L311.283 113.884L311.284 113.893L317.237 113.148ZM316.944 106.264L312.259 102.516L310.984 104.11L310.945 106.15L316.944 106.264ZM322.364 102.382L325.126 107.708L325.144 107.699L325.163 107.689L322.364 102.382ZM331.446 98.8662L329.875 93.0757L329.864 93.0786L329.853 93.0815L331.446 98.8662ZM355.177 101.283L351.696 106.17L351.711 106.181L351.727 106.192L355.177 101.283ZM360.89 112.27L366.886 112.063L366.885 112.044L366.885 112.025L360.89 112.27ZM359.864 152.919L365.853 153.279L365.854 153.278L359.864 152.919ZM356.715 198.988L350.731 198.543L350.731 198.554L350.73 198.564L356.715 198.988ZM355.982 209.315L358.902 214.557L361.738 212.978L361.967 209.74L355.982 209.315ZM330.934 210.268H324.934V214.3L328.667 215.823L330.934 210.268ZM336.934 207.411C336.934 205.24 336.834 198.944 336.64 188.621L324.642 188.848C324.838 199.228 324.934 205.383 324.934 207.411H336.934ZM336.639 188.58C336.249 173.477 336.055 160.445 336.055 149.477H324.055C324.055 160.578 324.251 173.718 324.643 188.889L336.639 188.58ZM336.055 149.477C336.055 138.749 336.249 129.729 336.632 122.397L324.649 121.771C324.251 129.38 324.055 138.622 324.055 149.477H336.055ZM331.407 116.133L319.469 114.595L317.935 126.497L329.874 128.035L331.407 116.133ZM324.529 119.113C323.825 116.251 323.395 114.035 323.191 112.404L311.284 113.893C311.568 116.168 312.115 118.883 312.876 121.979L324.529 119.113ZM323.193 112.422C322.991 110.764 322.898 108.758 322.943 106.377L310.945 106.15C310.893 108.945 310.995 111.529 311.281 113.875L323.193 112.422ZM321.63 110.012C321.799 109.8 322.683 108.975 325.126 107.708L319.602 97.0553C316.772 98.5231 314.043 100.286 312.259 102.516L321.63 110.012ZM325.163 107.689C327.412 106.503 330.027 105.48 333.039 104.651L329.853 93.0815C326.128 94.1075 322.687 95.4286 319.566 97.0744L325.163 107.689ZM333.018 104.657C335.982 103.852 338.748 103.475 341.334 103.475V91.4746C337.572 91.4746 333.746 92.0248 329.875 93.0757L333.018 104.657ZM341.334 103.475C346.116 103.475 349.41 104.542 351.696 106.17L358.658 96.3963C353.815 92.9463 347.88 91.4746 341.334 91.4746V103.475ZM351.727 106.192C353.669 107.557 354.768 109.413 354.895 112.514L366.885 112.025C366.621 105.555 363.911 100.088 358.626 96.3741L351.727 106.192ZM354.893 112.476C354.989 115.265 355.036 117.609 355.036 119.521H367.036C367.036 117.428 366.985 114.938 366.886 112.063L354.893 112.476ZM355.036 119.521C355.036 128.592 354.652 139.598 353.875 152.56L365.854 153.278C366.639 140.166 367.036 128.906 367.036 119.521H355.036ZM353.875 152.559C353.096 165.511 352.048 180.837 350.731 198.543L362.698 199.433C364.018 181.69 365.07 166.304 365.853 153.279L353.875 152.559ZM350.73 198.564L349.997 208.891L361.967 209.74L362.7 199.413L350.73 198.564ZM353.063 204.074C350.199 205.669 346.83 206.538 342.799 206.538V218.538C348.63 218.538 354.051 217.259 358.902 214.557L353.063 204.074ZM342.799 206.538C339.339 206.538 336.157 205.918 333.2 204.712L328.667 215.823C333.132 217.644 337.86 218.538 342.799 218.538V206.538ZM336.934 210.268V207.411H324.934V210.268H336.934ZM385.745 187.489L387.642 181.797L384.753 180.834L382.27 182.598L385.745 187.489ZM388.528 188.515L386.4 194.125L386.515 194.168L386.631 194.207L388.528 188.515ZM393.362 189.76L392.217 195.649L399.362 197.039V189.76H393.362ZM393.362 120.766H399.362V116.458L395.281 115.081L393.362 120.766ZM381.863 116.884L376.343 119.235L377.397 121.709L379.944 122.569L381.863 116.884ZM381.497 100.331L379.966 94.5297L377.047 95.2999L375.926 98.1027L381.497 100.331ZM394.168 98.207L394.759 104.178L394.785 104.175L394.811 104.172L394.168 98.207ZM426.834 98.9395L432.167 96.1904L430.834 93.6049L427.979 93.0498L426.834 98.9395ZM437.674 125.673L432.039 127.733L432.042 127.743L432.046 127.752L437.674 125.673ZM455.105 177.162L449.39 178.988L450.895 183.699L455.807 183.121L455.105 177.162ZM456.351 177.016L457.052 182.975L463.009 182.274L462.31 176.316L456.351 177.016ZM452.103 134.608L446.124 135.111L446.124 135.121L446.125 135.131L452.103 134.608ZM450.052 101.21L447.537 95.7622L444.052 97.371V101.21H450.052ZM458.548 98.5L459.742 104.38L459.786 104.371L459.83 104.361L458.548 98.5ZM479.568 100.111L485.551 100.57L485.875 96.3483L482.005 94.6285L479.568 100.111ZM472.464 192.689L466.481 192.23L466.318 194.356L467.533 196.108L472.464 192.689ZM477.225 205.58L481.66 209.621L483.53 207.568L483.176 204.814L477.225 205.58ZM468.069 210.707L469.736 216.471L469.758 216.464L469.781 216.458L468.069 210.707ZM445.364 211.366L443.886 217.181L443.897 217.184L443.909 217.187L445.364 211.366ZM438.626 207.997L432.627 207.917L432.591 210.56L434.518 212.37L438.626 207.997ZM439.578 197.963L445.469 199.103L445.856 197.102L444.945 195.28L439.578 197.963ZM428.958 173.793L423.352 175.93L423.359 175.949L423.366 175.968L428.958 173.793ZM416.067 138.637L421.717 136.615L421.714 136.608L421.712 136.601L416.067 138.637ZM412.845 129.701L418.489 127.666L416.792 122.961L411.858 123.783L412.845 129.701ZM412.405 129.774L411.419 123.856L405.683 124.812L406.459 130.575L412.405 129.774ZM415.701 163.466L409.72 163.938L409.72 163.94L415.701 163.466ZM412.552 208.29L408.664 203.72L408.647 203.735L408.63 203.749L412.552 208.29ZM383.841 208.07L380.484 213.043L380.555 213.091L380.628 213.137L383.841 208.07ZM379.739 204.262H373.739V206.017L374.686 207.496L379.739 204.262ZM383.848 193.181C384.149 193.282 384.958 193.578 386.4 194.125L390.656 182.905C389.267 182.378 388.22 181.99 387.642 181.797L383.848 193.181ZM386.631 194.207C388.377 194.789 390.244 195.266 392.217 195.649L394.508 183.87C392.965 183.57 391.609 183.217 390.426 182.823L386.631 194.207ZM399.362 189.76V120.766H387.362V189.76H399.362ZM395.281 115.081L383.782 111.199L379.944 122.569L391.443 126.45L395.281 115.081ZM387.383 114.533C386.632 112.768 386.179 110.564 386.179 107.802H374.179C374.179 111.875 374.849 115.726 376.343 119.235L387.383 114.533ZM386.179 107.802C386.179 105.65 386.518 103.935 387.068 102.559L375.926 98.1027C374.719 101.122 374.179 104.387 374.179 107.802H386.179ZM383.028 106.132C386.148 105.309 390.039 104.645 394.759 104.178L393.577 92.2362C388.433 92.7455 383.878 93.4974 379.966 94.5297L383.028 106.132ZM394.811 104.172C399.595 103.657 404.189 103.401 408.597 103.401V91.4014C403.727 91.4014 398.702 91.6833 393.525 92.2416L394.811 104.172ZM408.597 103.401C415.198 103.401 420.881 103.894 425.689 104.829L427.979 93.0498C422.24 91.9339 415.764 91.4014 408.597 91.4014V103.401ZM421.501 101.689C423.747 106.047 427.245 114.625 432.039 127.733L443.309 123.612C438.532 110.549 434.803 101.305 432.167 96.1904L421.501 101.689ZM432.046 127.752C436.836 140.72 442.616 157.789 449.39 178.988L460.821 175.336C454.02 154.054 448.18 136.797 443.302 123.594L432.046 127.752ZM455.807 183.121L457.052 182.975L455.65 171.057L454.404 171.203L455.807 183.121ZM462.31 176.316C460.902 164.33 459.492 150.256 458.08 134.086L446.125 135.131C447.545 151.382 448.967 165.58 450.392 177.715L462.31 176.316ZM458.081 134.106C456.712 117.823 456.052 106.929 456.052 101.21H444.052C444.052 107.503 444.758 118.875 446.124 135.111L458.081 134.106ZM452.566 106.658C454.629 105.705 457.01 104.935 459.742 104.38L457.353 92.6201C453.836 93.3347 450.552 94.3707 447.537 95.7622L452.566 106.658ZM459.83 104.361C462.62 103.751 465.065 103.475 467.19 103.475V91.4746C464.043 91.4746 460.726 91.8816 457.266 92.6386L459.83 104.361ZM467.19 103.475C470.642 103.475 473.938 104.175 477.132 105.594L482.005 94.6285C477.289 92.5322 472.333 91.4746 467.19 91.4746V103.475ZM473.586 99.6522L466.481 192.23L478.446 193.149L485.551 100.57L473.586 99.6522ZM467.533 196.108C469.464 198.893 470.747 202.256 471.274 206.346L483.176 204.814C482.432 199.041 480.542 193.81 477.395 189.271L467.533 196.108ZM472.789 201.539C471.778 202.65 469.847 203.918 466.358 204.956L469.781 216.458C474.495 215.055 478.668 212.905 481.66 209.621L472.789 201.539ZM466.403 204.943C462.937 205.945 459.181 206.465 455.105 206.465V218.465C460.21 218.465 465.096 217.813 469.736 216.471L466.403 204.943ZM455.105 206.465C451.946 206.465 449.197 206.14 446.819 205.545L443.909 217.187C447.391 218.058 451.136 218.465 455.105 218.465V206.465ZM446.843 205.551C444.62 204.986 443.394 204.243 442.734 203.624L434.518 212.37C437.081 214.778 440.346 216.281 443.886 217.181L446.843 205.551ZM444.625 208.077C444.67 204.707 444.962 201.723 445.469 199.103L433.687 196.823C433.023 200.257 432.679 203.963 432.627 207.917L444.625 208.077ZM444.945 195.28C441.377 188.144 437.911 180.26 434.55 171.618L423.366 175.968C426.841 184.904 430.455 193.133 434.212 200.646L444.945 195.28ZM434.564 171.656C431.216 162.873 426.935 151.197 421.717 136.615L410.418 140.658C415.649 155.276 419.962 167.038 423.352 175.93L434.564 171.656ZM421.712 136.601L418.489 127.666L407.201 131.737L410.423 140.672L421.712 136.601ZM411.858 123.783L411.419 123.856L413.392 135.693L413.831 135.62L411.858 123.783ZM406.459 130.575C407.462 138.024 408.55 149.123 409.72 163.938L421.683 162.994C420.508 148.121 419.4 136.759 418.352 128.974L406.459 130.575ZM409.72 163.94C410.89 178.715 411.459 189.33 411.459 195.912H423.459C423.459 188.823 422.856 177.807 421.682 162.992L409.72 163.94ZM411.459 195.912C411.459 200.14 410.245 202.375 408.664 203.72L416.44 212.86C421.401 208.639 423.459 202.622 423.459 195.912H411.459ZM408.63 203.749C406.995 205.161 403.669 206.465 397.391 206.465V218.465C404.882 218.465 411.663 216.985 416.473 212.831L408.63 203.749ZM397.391 206.465C396.016 206.465 394.377 206.199 392.437 205.539L388.574 216.9C391.517 217.901 394.469 218.465 397.391 218.465V206.465ZM392.437 205.539C390.407 204.849 388.621 203.997 387.054 203.003L380.628 213.137C383.064 214.683 385.722 215.931 388.574 216.9L392.437 205.539ZM387.198 203.097C385.55 201.985 384.942 201.261 384.793 201.027L374.686 207.496C376.099 209.704 378.226 211.519 380.484 213.043L387.198 203.097ZM385.739 204.262C385.739 201.368 386.18 198.675 387.034 196.151L375.667 192.304C374.373 196.127 373.739 200.124 373.739 204.262H385.739ZM387.034 196.151C387.885 193.635 388.778 192.695 389.22 192.38L382.27 182.598C379.001 184.921 376.964 188.472 375.667 192.304L387.034 196.151Z" fill="black" mask="url(#path-1-outside-1_20_14)"/>
<mask id="path-3-outside-2_20_14" maskUnits="userSpaceOnUse" x="-5" y="86" width="486" height="128" fill="black">
<rect fill="white" x="-5" y="86" width="486" height="128"/>
<path d="M2.92969 187.47C2.92969 183.026 3.83301 178.754 5.63965 174.652C6.46973 174.652 7.76367 174.823 9.52148 175.165C11.2793 175.458 13.1348 175.849 15.0879 176.337C14.8438 165.839 14.7217 155.585 14.7217 145.575C14.7217 134.784 14.917 125.58 15.3076 117.963H15.2344L15.3076 117.084L3.36914 115.546C2.63672 112.567 2.14844 110.102 1.9043 108.148C1.66016 106.146 1.5625 103.852 1.61133 101.264C3.17383 99.5059 5.46875 97.9678 8.49609 96.6494C11.5723 95.2822 14.8682 94.2568 18.3838 93.5732C21.9482 92.8408 25.1953 92.4746 28.125 92.4746C33.7402 92.4746 38.1104 93.5977 41.2354 95.8438C44.4092 98.041 46.2158 101.557 46.6553 106.391C46.8018 108.295 46.875 110.37 46.875 112.616C46.875 120.038 46.2158 128.827 44.8975 138.983C43.5791 149.14 41.8213 161.005 39.624 174.579L39.0381 178.388L57.7148 179.413L65.332 155.097C67.627 154.999 70.2393 155.17 73.1689 155.609C76.1475 156.049 78.7109 156.659 80.8594 157.44C81.7383 159.735 82.5439 163.397 83.2764 168.427C84.0576 173.407 84.4482 178.29 84.4482 183.075C84.4482 191.034 83.2764 196.625 80.9326 199.848C79.7607 201.41 78.125 202.777 76.0254 203.949C73.9746 205.072 71.8018 205.927 69.5068 206.513C67.2607 207.147 65.2344 207.465 63.4277 207.465C60.5469 207.465 57.1777 206.854 53.3203 205.634C49.4629 204.364 45.6787 202.777 41.9678 200.873C38.2568 198.92 35.2051 196.967 32.8125 195.014C30.6152 198.822 28.0762 201.776 25.1953 203.876C22.3145 205.976 18.7256 207.172 14.4287 207.465C12.3291 207.123 10.4004 206.024 8.64258 204.169C6.88477 202.313 5.49316 199.921 4.46777 196.991C3.44238 194.062 2.92969 190.888 2.92969 187.47ZM99.3428 150.629C99.3428 111.859 114.577 92.4746 145.046 92.4746C157.106 92.4746 166.506 94.9893 173.244 100.019C180.031 104.999 184.694 111.737 187.233 120.233C189.821 128.681 191.115 138.812 191.115 150.629C191.115 168.012 187.551 181.83 180.422 192.084C173.293 202.338 161.501 207.465 145.046 207.465C128.493 207.465 116.726 202.387 109.743 192.23C102.81 182.074 99.3428 168.207 99.3428 150.629ZM148.708 184.101C152.712 184.101 155.007 183.881 155.593 183.441C156.813 181.293 157.741 177.558 158.376 172.235C159.011 166.864 159.328 160.858 159.328 154.218C159.328 147.235 158.986 140.766 158.303 134.809C157.668 128.803 156.765 124.604 155.593 122.211C154.372 121.234 152.565 120.502 150.173 120.014C147.78 119.525 145.144 119.257 142.263 119.208C140.603 119.208 139.089 119.306 137.722 119.501C136.403 119.647 135.451 119.892 134.865 120.233C133.449 122.675 132.399 126.215 131.716 130.854C131.081 135.443 130.764 140.692 130.764 146.601C130.764 153.29 131.13 159.955 131.862 166.596C132.595 173.236 133.498 178.314 134.572 181.83C135.256 182.562 136.989 183.124 139.772 183.515C142.556 183.905 145.534 184.101 148.708 184.101ZM211.503 150.043C211.503 138.91 213.114 129.047 216.337 120.453C219.56 111.811 224.638 104.999 231.571 100.019C238.554 94.9893 247.416 92.4746 258.158 92.4746C261.967 92.4746 266.093 92.7188 270.536 93.207C274.979 93.6465 279.325 94.3545 283.573 95.3311C286.21 96.8936 288.505 98.5293 290.458 100.238C292.46 101.898 294.364 103.925 296.171 106.317C296.171 109.784 295.707 114.374 294.779 120.087C293.852 125.8 292.68 131.122 291.264 136.054C289.896 140.985 288.578 144.184 287.309 145.648C286.039 146.283 284.965 146.723 284.086 146.967C283.207 147.162 281.84 147.26 279.984 147.26C277.689 147.26 275.541 147.089 273.539 146.747C271.537 146.405 270.023 145.941 268.998 145.355L266.435 120.673C262.968 119.696 257.426 119.208 249.809 119.208C248.148 119.208 246.928 119.232 246.146 119.281C244.047 126.02 242.875 135.077 242.631 146.454V149.311C242.631 156.586 243.095 163.007 244.022 168.573C244.657 172.235 245.194 175.043 245.634 176.996C246.122 178.949 246.708 180.463 247.392 181.537C248.124 182.562 249.027 183.075 250.102 183.075C253.91 183.075 257.304 181.757 260.282 179.12C263.31 176.483 265.897 173.114 268.046 169.013L266.068 158.539C272.465 156.391 278.788 155.292 285.038 155.243C288.065 155.243 290.702 155.585 292.948 156.269C295.194 156.952 296.708 158.295 297.489 160.297C296.562 167.523 295.072 176.386 293.021 186.884C290.971 197.382 289.433 203.754 288.407 206C285.282 206.977 282.255 207.465 279.325 207.465C277.812 207.465 276.2 207.343 274.491 207.099C272.831 206.854 271.366 206.488 270.097 206C270.097 204.389 269.95 200.556 269.657 194.501L269.438 189.081L267.46 188.495C264.091 194.159 260.307 198.749 256.107 202.265C251.908 205.731 247.343 207.465 242.411 207.465C236.063 207.465 230.57 205.121 225.932 200.434C221.293 195.746 217.729 189.081 215.238 180.438C212.748 171.747 211.503 161.615 211.503 150.043ZM325.934 202.411C325.934 200.312 325.836 194.086 325.641 183.734C325.25 168.598 325.055 155.512 325.055 144.477C325.055 133.686 325.25 124.555 325.641 117.084L313.702 115.546C312.97 112.567 312.481 110.102 312.237 108.148C311.993 106.146 311.896 103.852 311.944 101.264C312.921 100.043 314.728 98.749 317.364 97.3818C320.05 95.9658 323.077 94.7939 326.446 93.8662C329.864 92.9385 333.16 92.4746 336.334 92.4746C341.998 92.4746 346.612 93.7441 350.177 96.2832C353.79 98.8223 355.694 102.484 355.89 107.27C355.987 110.102 356.036 112.519 356.036 114.521C356.036 123.749 355.646 134.882 354.864 147.919C354.083 160.907 353.033 176.264 351.715 193.988L350.982 204.315C347.125 206.464 342.73 207.538 337.799 207.538C333.6 207.538 329.645 206.781 325.934 205.268V202.411ZM380.745 182.489C381.185 182.636 382.112 182.978 383.528 183.515C384.993 184.003 386.604 184.418 388.362 184.76V115.766L376.863 111.884C375.74 109.247 375.179 106.22 375.179 102.802C375.179 100.019 375.618 97.5283 376.497 95.3311C380.013 94.4033 384.236 93.6953 389.168 93.207C394.148 92.6699 398.958 92.4014 403.597 92.4014C410.481 92.4014 416.561 92.9141 421.834 93.9395C424.275 98.6758 427.889 107.587 432.674 120.673C437.508 133.759 443.318 150.922 450.105 172.162L451.351 172.016C449.935 159.955 448.519 145.819 447.103 129.608C445.735 113.349 445.052 102.216 445.052 96.21C447.591 95.0381 450.423 94.1348 453.548 93.5C456.673 92.8164 459.554 92.4746 462.19 92.4746C466.487 92.4746 470.613 93.3535 474.568 95.1113L467.464 187.689C470.003 191.352 471.59 195.648 472.225 200.58C470.223 202.777 467.171 204.486 463.069 205.707C459.017 206.879 454.695 207.465 450.105 207.465C446.541 207.465 443.294 207.099 440.364 206.366C437.483 205.634 435.237 204.511 433.626 202.997C433.675 199.335 433.992 195.99 434.578 192.963C430.916 185.639 427.376 177.582 423.958 168.793C420.589 159.955 416.292 148.236 411.067 133.637L407.845 124.701L407.405 124.774C408.431 132.392 409.529 143.622 410.701 158.466C411.873 173.261 412.459 184.076 412.459 190.912C412.459 196.381 410.823 200.507 407.552 203.29C404.329 206.073 399.275 207.465 392.391 207.465C390.242 207.465 387.947 207.05 385.506 206.22C383.064 205.39 380.843 204.34 378.841 203.07C376.888 201.752 375.521 200.482 374.739 199.262C374.739 195.746 375.276 192.401 376.351 189.228C377.425 186.054 378.89 183.808 380.745 182.489Z"/>
</mask>
<path d="M2.92969 187.47C2.92969 183.026 3.83301 178.754 5.63965 174.652C6.46973 174.652 7.76367 174.823 9.52148 175.165C11.2793 175.458 13.1348 175.849 15.0879 176.337C14.8438 165.839 14.7217 155.585 14.7217 145.575C14.7217 134.784 14.917 125.58 15.3076 117.963H15.2344L15.3076 117.084L3.36914 115.546C2.63672 112.567 2.14844 110.102 1.9043 108.148C1.66016 106.146 1.5625 103.852 1.61133 101.264C3.17383 99.5059 5.46875 97.9678 8.49609 96.6494C11.5723 95.2822 14.8682 94.2568 18.3838 93.5732C21.9482 92.8408 25.1953 92.4746 28.125 92.4746C33.7402 92.4746 38.1104 93.5977 41.2354 95.8438C44.4092 98.041 46.2158 101.557 46.6553 106.391C46.8018 108.295 46.875 110.37 46.875 112.616C46.875 120.038 46.2158 128.827 44.8975 138.983C43.5791 149.14 41.8213 161.005 39.624 174.579L39.0381 178.388L57.7148 179.413L65.332 155.097C67.627 154.999 70.2393 155.17 73.1689 155.609C76.1475 156.049 78.7109 156.659 80.8594 157.44C81.7383 159.735 82.5439 163.397 83.2764 168.427C84.0576 173.407 84.4482 178.29 84.4482 183.075C84.4482 191.034 83.2764 196.625 80.9326 199.848C79.7607 201.41 78.125 202.777 76.0254 203.949C73.9746 205.072 71.8018 205.927 69.5068 206.513C67.2607 207.147 65.2344 207.465 63.4277 207.465C60.5469 207.465 57.1777 206.854 53.3203 205.634C49.4629 204.364 45.6787 202.777 41.9678 200.873C38.2568 198.92 35.2051 196.967 32.8125 195.014C30.6152 198.822 28.0762 201.776 25.1953 203.876C22.3145 205.976 18.7256 207.172 14.4287 207.465C12.3291 207.123 10.4004 206.024 8.64258 204.169C6.88477 202.313 5.49316 199.921 4.46777 196.991C3.44238 194.062 2.92969 190.888 2.92969 187.47ZM99.3428 150.629C99.3428 111.859 114.577 92.4746 145.046 92.4746C157.106 92.4746 166.506 94.9893 173.244 100.019C180.031 104.999 184.694 111.737 187.233 120.233C189.821 128.681 191.115 138.812 191.115 150.629C191.115 168.012 187.551 181.83 180.422 192.084C173.293 202.338 161.501 207.465 145.046 207.465C128.493 207.465 116.726 202.387 109.743 192.23C102.81 182.074 99.3428 168.207 99.3428 150.629ZM148.708 184.101C152.712 184.101 155.007 183.881 155.593 183.441C156.813 181.293 157.741 177.558 158.376 172.235C159.011 166.864 159.328 160.858 159.328 154.218C159.328 147.235 158.986 140.766 158.303 134.809C157.668 128.803 156.765 124.604 155.593 122.211C154.372 121.234 152.565 120.502 150.173 120.014C147.78 119.525 145.144 119.257 142.263 119.208C140.603 119.208 139.089 119.306 137.722 119.501C136.403 119.647 135.451 119.892 134.865 120.233C133.449 122.675 132.399 126.215 131.716 130.854C131.081 135.443 130.764 140.692 130.764 146.601C130.764 153.29 131.13 159.955 131.862 166.596C132.595 173.236 133.498 178.314 134.572 181.83C135.256 182.562 136.989 183.124 139.772 183.515C142.556 183.905 145.534 184.101 148.708 184.101ZM211.503 150.043C211.503 138.91 213.114 129.047 216.337 120.453C219.56 111.811 224.638 104.999 231.571 100.019C238.554 94.9893 247.416 92.4746 258.158 92.4746C261.967 92.4746 266.093 92.7188 270.536 93.207C274.979 93.6465 279.325 94.3545 283.573 95.3311C286.21 96.8936 288.505 98.5293 290.458 100.238C292.46 101.898 294.364 103.925 296.171 106.317C296.171 109.784 295.707 114.374 294.779 120.087C293.852 125.8 292.68 131.122 291.264 136.054C289.896 140.985 288.578 144.184 287.309 145.648C286.039 146.283 284.965 146.723 284.086 146.967C283.207 147.162 281.84 147.26 279.984 147.26C277.689 147.26 275.541 147.089 273.539 146.747C271.537 146.405 270.023 145.941 268.998 145.355L266.435 120.673C262.968 119.696 257.426 119.208 249.809 119.208C248.148 119.208 246.928 119.232 246.146 119.281C244.047 126.02 242.875 135.077 242.631 146.454V149.311C242.631 156.586 243.095 163.007 244.022 168.573C244.657 172.235 245.194 175.043 245.634 176.996C246.122 178.949 246.708 180.463 247.392 181.537C248.124 182.562 249.027 183.075 250.102 183.075C253.91 183.075 257.304 181.757 260.282 179.12C263.31 176.483 265.897 173.114 268.046 169.013L266.068 158.539C272.465 156.391 278.788 155.292 285.038 155.243C288.065 155.243 290.702 155.585 292.948 156.269C295.194 156.952 296.708 158.295 297.489 160.297C296.562 167.523 295.072 176.386 293.021 186.884C290.971 197.382 289.433 203.754 288.407 206C285.282 206.977 282.255 207.465 279.325 207.465C277.812 207.465 276.2 207.343 274.491 207.099C272.831 206.854 271.366 206.488 270.097 206C270.097 204.389 269.95 200.556 269.657 194.501L269.438 189.081L267.46 188.495C264.091 194.159 260.307 198.749 256.107 202.265C251.908 205.731 247.343 207.465 242.411 207.465C236.063 207.465 230.57 205.121 225.932 200.434C221.293 195.746 217.729 189.081 215.238 180.438C212.748 171.747 211.503 161.615 211.503 150.043ZM325.934 202.411C325.934 200.312 325.836 194.086 325.641 183.734C325.25 168.598 325.055 155.512 325.055 144.477C325.055 133.686 325.25 124.555 325.641 117.084L313.702 115.546C312.97 112.567 312.481 110.102 312.237 108.148C311.993 106.146 311.896 103.852 311.944 101.264C312.921 100.043 314.728 98.749 317.364 97.3818C320.05 95.9658 323.077 94.7939 326.446 93.8662C329.864 92.9385 333.16 92.4746 336.334 92.4746C341.998 92.4746 346.612 93.7441 350.177 96.2832C353.79 98.8223 355.694 102.484 355.89 107.27C355.987 110.102 356.036 112.519 356.036 114.521C356.036 123.749 355.646 134.882 354.864 147.919C354.083 160.907 353.033 176.264 351.715 193.988L350.982 204.315C347.125 206.464 342.73 207.538 337.799 207.538C333.6 207.538 329.645 206.781 325.934 205.268V202.411ZM380.745 182.489C381.185 182.636 382.112 182.978 383.528 183.515C384.993 184.003 386.604 184.418 388.362 184.76V115.766L376.863 111.884C375.74 109.247 375.179 106.22 375.179 102.802C375.179 100.019 375.618 97.5283 376.497 95.3311C380.013 94.4033 384.236 93.6953 389.168 93.207C394.148 92.6699 398.958 92.4014 403.597 92.4014C410.481 92.4014 416.561 92.9141 421.834 93.9395C424.275 98.6758 427.889 107.587 432.674 120.673C437.508 133.759 443.318 150.922 450.105 172.162L451.351 172.016C449.935 159.955 448.519 145.819 447.103 129.608C445.735 113.349 445.052 102.216 445.052 96.21C447.591 95.0381 450.423 94.1348 453.548 93.5C456.673 92.8164 459.554 92.4746 462.19 92.4746C466.487 92.4746 470.613 93.3535 474.568 95.1113L467.464 187.689C470.003 191.352 471.59 195.648 472.225 200.58C470.223 202.777 467.171 204.486 463.069 205.707C459.017 206.879 454.695 207.465 450.105 207.465C446.541 207.465 443.294 207.099 440.364 206.366C437.483 205.634 435.237 204.511 433.626 202.997C433.675 199.335 433.992 195.99 434.578 192.963C430.916 185.639 427.376 177.582 423.958 168.793C420.589 159.955 416.292 148.236 411.067 133.637L407.845 124.701L407.405 124.774C408.431 132.392 409.529 143.622 410.701 158.466C411.873 173.261 412.459 184.076 412.459 190.912C412.459 196.381 410.823 200.507 407.552 203.29C404.329 206.073 399.275 207.465 392.391 207.465C390.242 207.465 387.947 207.05 385.506 206.22C383.064 205.39 380.843 204.34 378.841 203.07C376.888 201.752 375.521 200.482 374.739 199.262C374.739 195.746 375.276 192.401 376.351 189.228C377.425 186.054 378.89 183.808 380.745 182.489Z" fill="#E945B1"/>
<path d="M5.63965 174.652V168.652H1.72623L0.148723 172.234L5.63965 174.652ZM9.52148 175.165L8.37627 181.055L8.45549 181.07L8.53509 181.083L9.52148 175.165ZM15.0879 176.337L13.6327 182.158L21.2693 184.067L21.0863 176.197L15.0879 176.337ZM15.3076 117.963L21.2997 118.27L21.6232 111.963H15.3076V117.963ZM15.2344 117.963L9.2551 117.465L8.71358 123.963H15.2344V117.963ZM15.3076 117.084L21.2869 117.582L21.7632 111.866L16.0743 111.133L15.3076 117.084ZM3.36914 115.546L-2.45729 116.979L-1.47548 120.971L2.60247 121.497L3.36914 115.546ZM1.9043 108.148L-4.05158 108.875L-4.05049 108.884L-4.04937 108.893L1.9043 108.148ZM1.61133 101.264L-2.87313 97.2775L-4.34579 98.9342L-4.3876 101.15L1.61133 101.264ZM8.49609 96.6494L10.8917 102.15L10.9123 102.141L10.9329 102.132L8.49609 96.6494ZM18.3838 93.5732L19.529 99.4629L19.5603 99.4569L19.5914 99.4505L18.3838 93.5732ZM41.2354 95.8438L37.7335 100.716L37.7765 100.747L37.8201 100.777L41.2354 95.8438ZM46.6553 106.391L52.6376 105.93L52.6344 105.889L52.6306 105.847L46.6553 106.391ZM39.624 174.579L33.7011 173.62L33.6974 173.644L33.6938 173.667L39.624 174.579ZM39.0381 178.388L33.1079 177.475L32.1016 184.016L38.7092 184.379L39.0381 178.388ZM57.7148 179.413L57.3859 185.404L62.0455 185.66L63.4405 181.207L57.7148 179.413ZM65.332 155.097L65.0769 149.102L60.8662 149.281L59.6064 153.303L65.332 155.097ZM73.1689 155.609L72.2789 161.543L72.286 161.544L72.2932 161.545L73.1689 155.609ZM80.8594 157.44L86.4625 155.295L85.4832 152.737L82.9098 151.802L80.8594 157.44ZM83.2764 168.427L77.339 169.291L77.3437 169.324L77.3489 169.357L83.2764 168.427ZM80.9326 199.848L85.7326 203.448L85.7591 203.412L85.785 203.377L80.9326 199.848ZM76.0254 203.949L78.9073 209.212L78.9285 209.2L78.9496 209.188L76.0254 203.949ZM69.5068 206.513L68.0225 200.699L67.9486 200.718L67.8751 200.739L69.5068 206.513ZM53.3203 205.634L51.4446 211.333L51.4773 211.344L51.5101 211.354L53.3203 205.634ZM41.9678 200.873L39.1733 206.183L39.2008 206.197L39.2284 206.211L41.9678 200.873ZM32.8125 195.014L36.6068 190.366L31.1412 185.904L27.6154 192.015L32.8125 195.014ZM14.4287 207.465L13.4647 213.387L14.1471 213.498L14.8369 213.451L14.4287 207.465ZM8.92969 187.47C8.92969 183.867 9.65664 180.417 11.1306 177.071L0.148723 172.234C-1.99063 177.091 -3.07031 182.186 -3.07031 187.47H8.92969ZM5.63965 180.652C5.85371 180.652 6.66641 180.722 8.37627 181.055L10.6667 169.275C8.86093 168.924 7.08574 168.652 5.63965 168.652V180.652ZM8.53509 181.083C10.1168 181.347 11.815 181.703 13.6327 182.158L16.5431 170.516C14.4545 169.994 12.4418 169.569 10.5079 169.247L8.53509 181.083ZM21.0863 176.197C20.8432 165.744 20.7217 155.536 20.7217 145.575H8.72168C8.72168 155.634 8.84434 165.934 9.08951 176.476L21.0863 176.197ZM20.7217 145.575C20.7217 134.848 20.916 125.753 21.2997 118.27L9.31549 117.656C8.91797 125.407 8.72168 134.72 8.72168 145.575H20.7217ZM15.3076 111.963H15.2344V123.963H15.3076V111.963ZM21.2136 118.461L21.2869 117.582L9.32834 116.586L9.2551 117.465L21.2136 118.461ZM16.0743 111.133L4.13581 109.595L2.60247 121.497L14.5409 123.035L16.0743 111.133ZM9.19557 114.113C8.49186 111.251 8.06184 109.035 7.85796 107.404L-4.04937 108.893C-3.76496 111.168 -3.21842 113.883 -2.45729 116.979L9.19557 114.113ZM7.86017 107.422C7.65793 105.764 7.56532 103.758 7.61026 101.377L-4.3876 101.15C-4.44032 103.945 -4.33762 106.529 -4.05158 108.875L7.86017 107.422ZM6.09578 105.25C6.89578 104.35 8.36125 103.252 10.8917 102.15L6.10049 91.1484C2.57625 92.6832 -0.548126 94.6619 -2.87313 97.2775L6.09578 105.25ZM10.9329 102.132C13.5698 100.96 16.4297 100.066 19.529 99.4629L17.2386 87.6835C13.3067 88.4481 9.57472 89.6041 6.05926 91.1665L10.9329 102.132ZM19.5914 99.4505C22.8497 98.781 25.6845 98.4746 28.125 98.4746V86.4746C24.7061 86.4746 21.0468 86.9007 17.1761 87.696L19.5914 99.4505ZM28.125 98.4746C33.0352 98.4746 36.0003 99.4701 37.7335 100.716L44.7372 90.9717C40.2204 87.7252 34.4453 86.4746 28.125 86.4746V98.4746ZM37.8201 100.777C39.1679 101.71 40.3564 103.375 40.6799 106.934L52.6306 105.847C52.0752 99.738 49.6505 94.372 44.6506 90.9106L37.8201 100.777ZM40.6729 106.851C40.8058 108.578 40.875 110.498 40.875 112.616H52.875C52.875 110.242 52.7977 108.012 52.6376 105.93L40.6729 106.851ZM40.875 112.616C40.875 119.704 40.244 128.222 38.9474 138.211L50.8475 139.756C52.1876 129.432 52.875 120.372 52.875 112.616H40.875ZM38.9474 138.211C37.6393 148.288 35.8915 160.089 33.7011 173.62L45.5469 175.538C47.7511 161.921 49.5189 149.991 50.8475 139.756L38.9474 138.211ZM33.6938 173.667L33.1079 177.475L44.9683 179.3L45.5543 175.491L33.6938 173.667ZM38.7092 184.379L57.3859 185.404L58.0438 173.422L39.367 172.397L38.7092 184.379ZM63.4405 181.207L71.0577 156.89L59.6064 153.303L51.9892 177.62L63.4405 181.207ZM65.5871 161.091C67.4079 161.014 69.6255 161.145 72.2789 161.543L74.059 149.676C70.8531 149.195 67.846 148.984 65.0769 149.102L65.5871 161.091ZM72.2932 161.545C74.9891 161.943 77.1388 162.472 78.8089 163.079L82.9098 151.802C80.2831 150.846 77.3058 150.155 74.0447 149.674L72.2932 161.545ZM75.2562 159.586C75.885 161.228 76.6178 164.339 77.339 169.291L89.2137 167.562C88.4701 162.456 87.5916 158.243 86.4625 155.295L75.2562 159.586ZM77.3489 169.357C78.0844 174.046 78.4482 178.617 78.4482 183.075H90.4482C90.4482 177.963 90.0308 172.769 89.2039 167.497L77.3489 169.357ZM78.4482 183.075C78.4482 190.821 77.2341 194.732 76.0802 196.319L85.785 203.377C89.3186 198.518 90.4482 191.247 90.4482 183.075H78.4482ZM76.1326 196.248C75.5667 197.002 74.6328 197.855 73.1012 198.71L78.9496 209.188C81.6172 207.7 83.9548 205.818 85.7326 203.448L76.1326 196.248ZM73.1435 198.687C71.5394 199.565 69.8367 200.236 68.0225 200.699L70.9911 212.326C73.7668 211.618 76.4098 210.579 78.9073 209.212L73.1435 198.687ZM67.8751 200.739C66.014 201.265 64.5492 201.465 63.4277 201.465V213.465C65.9196 213.465 68.5075 213.03 71.1386 212.287L67.8751 200.739ZM63.4277 201.465C61.3536 201.465 58.6197 201.018 55.1306 199.913L51.5101 211.354C55.7357 212.691 59.7402 213.465 63.4277 213.465V201.465ZM55.196 199.935C51.6434 198.765 48.1475 197.3 44.7071 195.535L39.2284 206.211C43.2099 208.254 47.2824 209.963 51.4446 211.333L55.196 199.935ZM44.7623 195.564C41.2892 193.736 38.6013 191.994 36.6068 190.366L29.0182 199.662C31.8088 201.94 35.2245 204.104 39.1733 206.183L44.7623 195.564ZM27.6154 192.015C25.7419 195.263 23.7259 197.522 21.6614 199.027L28.7292 208.725C32.4264 206.03 35.4886 202.382 38.0096 198.012L27.6154 192.015ZM21.6614 199.027C19.8688 200.334 17.4256 201.247 14.0206 201.479L14.8369 213.451C20.0255 213.097 24.7601 211.618 28.7292 208.725L21.6614 199.027ZM15.3928 201.543C14.8354 201.452 14.0401 201.142 12.9983 200.042L4.28686 208.295C6.76065 210.907 9.82284 212.794 13.4647 213.387L15.3928 201.543ZM12.9983 200.042C11.9336 198.919 10.9354 197.308 10.1309 195.009L-1.19538 198.973C0.0509598 202.534 1.8359 205.708 4.28686 208.295L12.9983 200.042ZM10.1309 195.009C9.34991 192.778 8.92969 190.281 8.92969 187.47H-3.07031C-3.07031 191.495 -2.46514 195.345 -1.19538 198.973L10.1309 195.009ZM173.244 100.019L169.655 104.827L169.675 104.841L169.694 104.856L173.244 100.019ZM187.233 120.233L181.485 121.951L181.491 121.971L181.497 121.991L187.233 120.233ZM109.743 192.23L104.788 195.613L104.793 195.622L104.799 195.63L109.743 192.23ZM155.593 183.441L159.193 188.241L160.192 187.492L160.81 186.405L155.593 183.441ZM158.376 172.235L164.334 172.946L164.335 172.94L158.376 172.235ZM158.303 134.809L152.336 135.439L152.339 135.466L152.342 135.493L158.303 134.809ZM155.593 122.211L160.981 119.572L160.39 118.365L159.341 117.526L155.593 122.211ZM142.263 119.208L142.364 113.209L142.314 113.208H142.263V119.208ZM137.722 119.501L138.384 125.464L138.477 125.454L138.57 125.441L137.722 119.501ZM134.865 120.233L131.842 115.051L130.471 115.85L129.675 117.223L134.865 120.233ZM131.716 130.854L125.78 129.979L125.776 130.005L125.772 130.032L131.716 130.854ZM134.572 181.83L128.834 183.583L129.239 184.91L130.186 185.924L134.572 181.83ZM105.343 150.629C105.343 131.867 109.057 118.902 115.486 110.721C121.699 102.815 131.173 98.4746 145.046 98.4746V86.4746C128.45 86.4746 115.072 91.8268 106.051 103.306C97.2461 114.509 93.3428 130.621 93.3428 150.629H105.343ZM145.046 98.4746C156.356 98.4746 164.318 100.843 169.655 104.827L176.833 95.2102C168.694 89.1356 157.857 86.4746 145.046 86.4746V98.4746ZM169.694 104.856C175.37 109.021 179.298 114.635 181.485 121.951L192.982 118.515C190.09 108.839 184.692 100.977 176.794 95.1812L169.694 104.856ZM181.497 121.991C183.862 129.714 185.115 139.221 185.115 150.629H197.115C197.115 138.404 195.78 127.648 192.97 118.476L181.497 121.991ZM185.115 150.629C185.115 167.252 181.7 179.735 175.495 188.659L185.348 195.509C193.402 183.926 197.115 168.771 197.115 150.629H185.115ZM175.495 188.659C169.831 196.806 160.225 201.465 145.046 201.465V213.465C162.777 213.465 176.755 207.869 185.348 195.509L175.495 188.659ZM145.046 201.465C129.724 201.465 120.186 196.829 114.687 188.831L104.799 195.63C113.265 207.944 127.262 213.465 145.046 213.465V201.465ZM114.699 188.847C108.68 180.032 105.343 167.497 105.343 150.629H93.3428C93.3428 168.917 96.9391 184.117 104.788 195.613L114.699 188.847ZM148.708 190.101C150.784 190.101 152.578 190.045 154.004 189.908C154.71 189.841 155.46 189.741 156.171 189.579C156.685 189.461 157.985 189.147 159.193 188.241L151.993 178.641C152.529 178.239 152.991 178.052 153.164 177.986C153.273 177.945 153.356 177.919 153.406 177.904C153.457 177.89 153.488 177.882 153.495 177.881C153.504 177.879 153.457 177.89 153.34 177.907C153.225 177.924 153.068 177.943 152.86 177.963C151.992 178.046 150.636 178.101 148.708 178.101V190.101ZM160.81 186.405C162.669 183.133 163.689 178.349 164.334 172.946L152.418 171.525C151.793 176.766 150.958 179.453 150.376 180.477L160.81 186.405ZM164.335 172.94C165.002 167.289 165.328 161.043 165.328 154.218H153.328C153.328 160.674 153.019 166.439 152.417 171.531L164.335 172.94ZM165.328 154.218C165.328 147.043 164.977 140.342 164.264 134.125L152.342 135.493C152.996 141.189 153.328 147.428 153.328 154.218H165.328ZM164.27 134.178C163.631 128.134 162.659 122.997 160.981 119.572L150.204 124.85C150.87 126.21 151.705 129.472 152.336 135.439L164.27 134.178ZM159.341 117.526C157.075 115.713 154.224 114.717 151.373 114.135L148.973 125.892C150.906 126.287 151.669 126.756 151.845 126.896L159.341 117.526ZM151.373 114.135C148.561 113.561 145.55 113.263 142.364 113.209L142.161 125.207C144.737 125.251 147 125.49 148.973 125.892L151.373 114.135ZM142.263 113.208C140.373 113.208 138.571 113.319 136.873 113.561L138.57 125.441C139.607 125.293 140.832 125.208 142.263 125.208V113.208ZM137.059 113.538C135.553 113.705 133.556 114.051 131.842 115.051L137.888 125.416C137.699 125.527 137.562 125.582 137.509 125.602C137.455 125.623 137.449 125.621 137.509 125.606C137.638 125.573 137.915 125.516 138.384 125.464L137.059 113.538ZM129.675 117.223C127.707 120.617 126.511 125.019 125.78 129.979L137.652 131.728C138.288 127.411 139.192 124.733 140.055 123.244L129.675 117.223ZM125.772 130.032C125.091 134.956 124.764 140.488 124.764 146.601H136.764C136.764 140.897 137.071 135.931 137.659 131.675L125.772 130.032ZM124.764 146.601C124.764 153.51 125.142 160.394 125.898 167.253L137.826 165.938C137.118 159.516 136.764 153.071 136.764 146.601H124.764ZM125.898 167.253C126.644 174.017 127.596 179.532 128.834 183.583L140.31 180.077C139.4 177.097 138.545 172.455 137.826 165.938L125.898 167.253ZM130.186 185.924C131.584 187.422 133.375 188.132 134.536 188.509C135.86 188.938 137.366 189.236 138.939 189.456L140.606 177.573C139.396 177.403 138.643 177.225 138.234 177.093C138.037 177.029 138.018 177.007 138.114 177.058C138.193 177.1 138.549 177.297 138.959 177.736L130.186 185.924ZM138.939 189.456C142.031 189.89 145.29 190.101 148.708 190.101V178.101C145.778 178.101 143.081 177.92 140.606 177.573L138.939 189.456ZM216.337 120.453L221.955 122.56L221.959 122.549L216.337 120.453ZM231.571 100.019L235.072 104.892L235.078 104.887L231.571 100.019ZM270.536 93.207L269.881 99.1711L269.913 99.1747L269.946 99.1779L270.536 93.207ZM283.573 95.3311L286.632 90.1693L285.828 89.6929L284.917 89.4836L283.573 95.3311ZM290.458 100.238L286.507 104.754L286.567 104.806L286.628 104.857L290.458 100.238ZM296.171 106.317H302.171V104.307L300.959 102.702L296.171 106.317ZM291.264 136.054L285.497 134.398L285.489 134.424L285.482 134.451L291.264 136.054ZM287.309 145.648L289.992 151.015L291.06 150.481L291.843 149.578L287.309 145.648ZM284.086 146.967L285.388 152.824L285.541 152.79L285.692 152.748L284.086 146.967ZM268.998 145.355L263.03 145.975L263.348 149.037L266.021 150.565L268.998 145.355ZM266.435 120.673L272.402 120.053L271.982 116.002L268.061 114.898L266.435 120.673ZM246.146 119.281L245.772 113.293L241.648 113.551L240.418 117.496L246.146 119.281ZM242.631 146.454L236.632 146.325L236.631 146.39V146.454H242.631ZM244.022 168.573L238.104 169.56L238.107 169.579L238.111 169.598L244.022 168.573ZM245.634 176.996L239.78 178.313L239.796 178.382L239.813 178.451L245.634 176.996ZM247.392 181.537L242.33 184.758L242.416 184.894L242.509 185.025L247.392 181.537ZM260.282 179.12L256.342 174.596L256.323 174.612L256.305 174.628L260.282 179.12ZM268.046 169.013L273.361 171.797L274.329 169.949L273.942 167.899L268.046 169.013ZM266.068 158.539L264.158 152.851L259.203 154.516L260.173 159.652L266.068 158.539ZM285.038 155.243V149.243H285.015L284.991 149.243L285.038 155.243ZM297.489 160.297L303.44 161.061L303.635 159.542L303.079 158.116L297.489 160.297ZM288.407 206L290.197 211.727L292.753 210.928L293.865 208.492L288.407 206ZM274.491 207.099L273.618 213.035L273.63 213.037L273.643 213.038L274.491 207.099ZM270.097 206H264.097V210.121L267.943 211.6L270.097 206ZM269.657 194.501L263.662 194.744L263.663 194.767L263.664 194.791L269.657 194.501ZM269.438 189.081L275.433 188.838L275.259 184.548L271.142 183.328L269.438 189.081ZM267.46 188.495L269.164 182.742L264.689 181.416L262.303 185.428L267.46 188.495ZM256.107 202.265L259.927 206.892L259.943 206.878L259.959 206.865L256.107 202.265ZM215.238 180.438L209.47 182.091L209.473 182.1L215.238 180.438ZM217.503 150.043C217.503 139.481 219.032 130.354 221.955 122.56L210.719 118.346C207.196 127.74 205.503 138.339 205.503 150.043H217.503ZM221.959 122.549C224.801 114.928 229.184 109.121 235.072 104.892L228.071 95.1454C220.092 100.877 214.319 108.693 210.715 118.357L221.959 122.549ZM235.078 104.887C240.81 100.759 248.359 98.4746 258.158 98.4746V86.4746C246.473 86.4746 236.298 89.2198 228.065 95.15L235.078 104.887ZM258.158 98.4746C261.714 98.4746 265.619 98.7028 269.881 99.1711L271.192 87.2429C266.567 86.7347 262.219 86.4746 258.158 86.4746V98.4746ZM269.946 99.1779C274.142 99.5929 278.235 100.26 282.229 101.179L284.917 89.4836C280.415 88.4485 275.817 87.7001 271.127 87.2362L269.946 99.1779ZM280.514 100.493C282.89 101.9 284.875 103.326 286.507 104.754L294.409 95.7228C292.135 93.7327 289.53 91.8868 286.632 90.1693L280.514 100.493ZM286.628 104.857C288.223 106.18 289.814 107.856 291.383 109.933L300.959 102.702C298.914 99.9939 296.696 97.617 294.288 95.6197L286.628 104.857ZM290.171 106.317C290.171 109.32 289.762 113.55 288.857 119.125L300.702 121.049C301.652 115.198 302.171 110.248 302.171 106.317H290.171ZM288.857 119.125C287.962 124.633 286.84 129.721 285.497 134.398L297.031 137.71C298.52 132.523 299.741 126.967 300.702 121.049L288.857 119.125ZM285.482 134.451C284.835 136.783 284.237 138.566 283.702 139.864C283.437 140.509 283.208 140.982 283.024 141.313C282.832 141.658 282.74 141.759 282.774 141.719L291.843 149.578C293.111 148.115 294.052 146.243 294.797 144.438C295.58 142.538 296.325 140.256 297.046 137.657L285.482 134.451ZM284.625 140.282C283.533 140.828 282.842 141.085 282.48 141.186L285.692 152.748C287.087 152.36 288.545 151.738 289.992 151.015L284.625 140.282ZM282.784 141.11C282.58 141.155 281.761 141.26 279.984 141.26V153.26C281.919 153.26 283.834 153.169 285.388 152.824L282.784 141.11ZM279.984 141.26C277.985 141.26 276.178 141.111 274.549 140.833L272.529 152.661C274.904 153.067 277.394 153.26 279.984 153.26V141.26ZM274.549 140.833C272.815 140.537 272.105 140.22 271.975 140.146L266.021 150.565C267.942 151.663 270.259 152.274 272.529 152.661L274.549 140.833ZM274.966 144.736L272.402 120.053L260.467 121.293L263.03 145.975L274.966 144.736ZM268.061 114.898C263.75 113.683 257.506 113.208 249.809 113.208V125.208C257.346 125.208 262.186 125.709 264.808 126.448L268.061 114.898ZM249.809 113.208C248.129 113.208 246.752 113.232 245.772 113.293L246.521 125.27C247.104 125.233 248.167 125.208 249.809 125.208V113.208ZM240.418 117.496C238.081 124.997 236.882 134.685 236.632 146.325L248.629 146.583C248.868 135.469 250.013 127.042 251.875 121.066L240.418 117.496ZM236.631 146.454V149.311H248.631V146.454H236.631ZM236.631 149.311C236.631 156.827 237.109 163.59 238.104 169.56L249.941 167.587C249.08 162.424 248.631 156.345 248.631 149.311H236.631ZM238.111 169.598C238.751 173.29 239.308 176.214 239.78 178.313L251.487 175.679C251.081 173.872 250.564 171.18 249.934 167.549L238.111 169.598ZM239.813 178.451C240.378 180.711 241.159 182.919 242.33 184.758L252.454 178.316C252.257 178.007 251.866 177.188 251.455 175.541L239.813 178.451ZM242.509 185.025C244.145 187.315 246.736 189.075 250.102 189.075V177.075C250.566 177.075 251.097 177.198 251.58 177.473C252.031 177.728 252.239 178.001 252.274 178.05L242.509 185.025ZM250.102 189.075C255.445 189.075 260.237 187.173 264.259 183.613L256.305 174.628C254.37 176.34 252.375 177.075 250.102 177.075V189.075ZM264.223 183.645C267.892 180.449 270.919 176.459 273.361 171.797L262.731 166.229C260.876 169.77 258.727 172.518 256.342 174.596L264.223 183.645ZM273.942 167.899L271.964 157.426L260.173 159.652L262.15 170.126L273.942 167.899ZM267.979 164.227C273.822 162.264 279.517 161.286 285.085 161.243L284.991 149.243C278.059 149.298 271.107 150.517 264.158 152.851L267.979 164.227ZM285.038 161.243C287.635 161.243 289.658 161.539 291.201 162.009L294.695 150.529C291.746 149.631 288.496 149.243 285.038 149.243V161.243ZM291.201 162.009C291.63 162.139 291.771 162.263 291.786 162.277C291.799 162.288 291.807 162.297 291.819 162.314C291.831 162.331 291.861 162.38 291.9 162.478L303.079 158.116C301.562 154.228 298.513 151.69 294.695 150.529L291.201 162.009ZM291.538 159.533C290.633 166.586 289.169 175.31 287.133 185.733L298.91 188.034C300.976 177.461 302.49 168.461 303.44 161.061L291.538 159.533ZM287.133 185.733C286.115 190.943 285.237 195.064 284.497 198.129C283.718 201.358 283.191 202.979 282.949 203.508L293.865 208.492C294.649 206.775 295.404 204.087 296.162 200.944C296.961 197.637 297.877 193.323 298.91 188.034L287.133 185.733ZM286.618 200.273C284.005 201.09 281.581 201.465 279.325 201.465V213.465C282.928 213.465 286.56 212.863 290.197 211.727L286.618 200.273ZM279.325 201.465C278.132 201.465 276.806 201.368 275.34 201.159L273.643 213.038C275.594 213.317 277.491 213.465 279.325 213.465V201.465ZM275.364 201.162C274.045 200.968 273.024 200.697 272.251 200.4L267.943 211.6C269.708 212.279 271.617 212.741 273.618 213.035L275.364 201.162ZM276.097 206C276.097 204.212 275.941 200.218 275.65 194.211L263.664 194.791C263.96 200.894 264.097 204.565 264.097 206H276.097ZM275.652 194.258L275.433 188.838L263.442 189.324L263.662 194.744L275.652 194.258ZM271.142 183.328L269.164 182.742L265.755 194.248L267.733 194.834L271.142 183.328ZM262.303 185.428C259.212 190.626 255.844 194.66 252.256 197.664L259.959 206.865C264.77 202.838 268.97 197.693 272.617 191.562L262.303 185.428ZM252.288 197.638C249.044 200.316 245.801 201.465 242.411 201.465V213.465C248.884 213.465 254.773 211.147 259.927 206.892L252.288 197.638ZM242.411 201.465C237.734 201.465 233.757 199.811 230.196 196.213L221.667 204.654C227.383 210.431 234.393 213.465 242.411 213.465V201.465ZM230.196 196.213C226.475 192.452 223.312 186.79 221.004 178.777L209.473 182.1C212.145 191.372 216.111 199.04 221.667 204.654L230.196 196.213ZM221.006 178.786C218.706 170.758 217.503 161.204 217.503 150.043H205.503C205.503 162.026 206.79 172.737 209.47 182.091L221.006 178.786ZM325.641 183.734L331.64 183.621L331.639 183.6L331.639 183.58L325.641 183.734ZM325.641 117.084L331.632 117.397L331.923 111.844L326.407 111.133L325.641 117.084ZM313.702 115.546L307.876 116.979L308.858 120.971L312.935 121.497L313.702 115.546ZM312.237 108.148L306.281 108.875L306.283 108.884L306.284 108.893L312.237 108.148ZM311.944 101.264L307.259 97.5155L305.984 99.1095L305.945 101.15L311.944 101.264ZM317.364 97.3818L320.126 102.708L320.144 102.699L320.163 102.689L317.364 97.3818ZM326.446 93.8662L324.875 88.0757L324.864 88.0786L324.853 88.0815L326.446 93.8662ZM350.177 96.2832L346.696 101.17L346.711 101.181L346.727 101.192L350.177 96.2832ZM355.89 107.27L361.886 107.063L361.885 107.044L361.885 107.025L355.89 107.27ZM354.864 147.919L360.853 148.279L360.854 148.278L354.864 147.919ZM351.715 193.988L345.731 193.543L345.731 193.554L345.73 193.564L351.715 193.988ZM350.982 204.315L353.902 209.557L356.738 207.978L356.967 204.74L350.982 204.315ZM325.934 205.268H319.934V209.3L323.667 210.823L325.934 205.268ZM331.934 202.411C331.934 200.24 331.834 193.944 331.64 183.621L319.642 183.848C319.838 194.228 319.934 200.383 319.934 202.411H331.934ZM331.639 183.58C331.249 168.477 331.055 155.445 331.055 144.477H319.055C319.055 155.578 319.251 168.718 319.643 183.889L331.639 183.58ZM331.055 144.477C331.055 133.749 331.249 124.729 331.632 117.397L319.649 116.771C319.251 124.38 319.055 133.622 319.055 144.477H331.055ZM326.407 111.133L314.469 109.595L312.935 121.497L324.874 123.035L326.407 111.133ZM319.529 114.113C318.825 111.251 318.395 109.035 318.191 107.404L306.284 108.893C306.568 111.168 307.115 113.883 307.876 116.979L319.529 114.113ZM318.193 107.422C317.991 105.764 317.898 103.758 317.943 101.377L305.945 101.15C305.893 103.945 305.995 106.529 306.281 108.875L318.193 107.422ZM316.63 105.012C316.799 104.8 317.683 103.975 320.126 102.708L314.602 92.0553C311.772 93.5231 309.043 95.2859 307.259 97.5155L316.63 105.012ZM320.163 102.689C322.412 101.503 325.027 100.48 328.039 99.6509L324.853 88.0815C321.128 89.1075 317.687 90.4286 314.566 92.0744L320.163 102.689ZM328.018 99.6567C330.982 98.8522 333.748 98.4746 336.334 98.4746V86.4746C332.572 86.4746 328.746 87.0248 324.875 88.0757L328.018 99.6567ZM336.334 98.4746C341.116 98.4746 344.41 99.5419 346.696 101.17L353.658 91.3963C348.815 87.9463 342.88 86.4746 336.334 86.4746V98.4746ZM346.727 101.192C348.669 102.557 349.768 104.413 349.895 107.514L361.885 107.025C361.621 100.555 358.911 95.0875 353.626 91.3741L346.727 101.192ZM349.893 107.476C349.989 110.265 350.036 112.609 350.036 114.521H362.036C362.036 112.428 361.985 109.938 361.886 107.063L349.893 107.476ZM350.036 114.521C350.036 123.592 349.652 134.598 348.875 147.56L360.854 148.278C361.639 135.166 362.036 123.906 362.036 114.521H350.036ZM348.875 147.559C348.096 160.511 347.048 175.837 345.731 193.543L357.698 194.433C359.018 176.69 360.07 161.304 360.853 148.279L348.875 147.559ZM345.73 193.564L344.997 203.891L356.967 204.74L357.7 194.413L345.73 193.564ZM348.063 199.074C345.199 200.669 341.83 201.538 337.799 201.538V213.538C343.63 213.538 349.051 212.259 353.902 209.557L348.063 199.074ZM337.799 201.538C334.339 201.538 331.157 200.918 328.2 199.712L323.667 210.823C328.132 212.644 332.86 213.538 337.799 213.538V201.538ZM331.934 205.268V202.411H319.934V205.268H331.934ZM380.745 182.489L382.642 176.797L379.753 175.834L377.27 177.598L380.745 182.489ZM383.528 183.515L381.4 189.125L381.515 189.168L381.631 189.207L383.528 183.515ZM388.362 184.76L387.217 190.649L394.362 192.039V184.76H388.362ZM388.362 115.766H394.362V111.458L390.281 110.081L388.362 115.766ZM376.863 111.884L371.343 114.235L372.397 116.709L374.944 117.569L376.863 111.884ZM376.497 95.3311L374.966 89.5297L372.047 90.2999L370.926 93.1027L376.497 95.3311ZM389.168 93.207L389.759 99.1778L389.785 99.1753L389.811 99.1724L389.168 93.207ZM421.834 93.9395L427.167 91.1904L425.834 88.6049L422.979 88.0498L421.834 93.9395ZM432.674 120.673L427.039 122.733L427.042 122.743L427.046 122.752L432.674 120.673ZM450.105 172.162L444.39 173.988L445.895 178.699L450.807 178.121L450.105 172.162ZM451.351 172.016L452.052 177.975L458.009 177.274L457.31 171.316L451.351 172.016ZM447.103 129.608L441.124 130.111L441.124 130.121L441.125 130.131L447.103 129.608ZM445.052 96.21L442.537 90.7622L439.052 92.371V96.21H445.052ZM453.548 93.5L454.742 99.3799L454.786 99.371L454.83 99.3614L453.548 93.5ZM474.568 95.1113L480.551 95.5704L480.875 91.3483L477.005 89.6285L474.568 95.1113ZM467.464 187.689L461.481 187.23L461.318 189.356L462.533 191.108L467.464 187.689ZM472.225 200.58L476.66 204.621L478.53 202.568L478.176 199.814L472.225 200.58ZM463.069 205.707L464.736 211.471L464.758 211.464L464.781 211.458L463.069 205.707ZM440.364 206.366L438.886 212.181L438.897 212.184L438.909 212.187L440.364 206.366ZM433.626 202.997L427.627 202.917L427.591 205.56L429.518 207.37L433.626 202.997ZM434.578 192.963L440.469 194.103L440.856 192.102L439.945 190.28L434.578 192.963ZM423.958 168.793L418.352 170.93L418.359 170.949L418.366 170.968L423.958 168.793ZM411.067 133.637L416.717 131.615L416.714 131.608L416.712 131.601L411.067 133.637ZM407.845 124.701L413.489 122.666L411.792 117.961L406.858 118.783L407.845 124.701ZM407.405 124.774L406.419 118.856L400.683 119.812L401.459 125.575L407.405 124.774ZM410.701 158.466L404.72 158.938L404.72 158.94L410.701 158.466ZM407.552 203.29L403.664 198.72L403.647 198.735L403.63 198.749L407.552 203.29ZM378.841 203.07L375.484 208.043L375.555 208.091L375.628 208.137L378.841 203.07ZM374.739 199.262H368.739V201.017L369.686 202.496L374.739 199.262ZM378.848 188.181C379.149 188.282 379.958 188.578 381.4 189.125L385.656 177.905C384.267 177.378 383.22 176.99 382.642 176.797L378.848 188.181ZM381.631 189.207C383.377 189.789 385.244 190.266 387.217 190.649L389.508 178.87C387.965 178.57 386.609 178.217 385.426 177.823L381.631 189.207ZM394.362 184.76V115.766H382.362V184.76H394.362ZM390.281 110.081L378.782 106.199L374.944 117.569L386.443 121.45L390.281 110.081ZM382.383 109.533C381.632 107.768 381.179 105.564 381.179 102.802H369.179C369.179 106.875 369.849 110.726 371.343 114.235L382.383 109.533ZM381.179 102.802C381.179 100.65 381.518 98.9349 382.068 97.5594L370.926 93.1027C369.719 96.1218 369.179 99.3873 369.179 102.802H381.179ZM378.028 101.132C381.148 100.309 385.039 99.6451 389.759 99.1778L388.577 87.2362C383.433 87.7455 378.878 88.4974 374.966 89.5297L378.028 101.132ZM389.811 99.1724C394.595 98.6566 399.189 98.4014 403.597 98.4014V86.4014C398.727 86.4014 393.702 86.6833 388.525 87.2416L389.811 99.1724ZM403.597 98.4014C410.198 98.4014 415.881 98.8942 420.689 99.8291L422.979 88.0498C417.24 86.9339 410.764 86.4014 403.597 86.4014V98.4014ZM416.501 96.6885C418.747 101.047 422.245 109.625 427.039 122.733L438.309 118.612C433.532 105.549 429.803 96.3048 427.167 91.1904L416.501 96.6885ZM427.046 122.752C431.836 135.72 437.616 152.789 444.39 173.988L455.821 170.336C449.02 149.054 443.18 131.797 438.302 118.594L427.046 122.752ZM450.807 178.121L452.052 177.975L450.65 166.057L449.404 166.203L450.807 178.121ZM457.31 171.316C455.902 159.33 454.492 145.256 453.08 129.086L441.125 130.131C442.545 146.382 443.967 160.58 445.392 172.715L457.31 171.316ZM453.081 129.106C451.712 112.823 451.052 101.929 451.052 96.21H439.052C439.052 102.503 439.758 113.875 441.124 130.111L453.081 129.106ZM447.566 101.658C449.629 100.705 452.01 99.9349 454.742 99.3799L452.353 87.6201C448.836 88.3347 445.552 89.3707 442.537 90.7622L447.566 101.658ZM454.83 99.3614C457.62 98.7512 460.065 98.4746 462.19 98.4746V86.4746C459.043 86.4746 455.726 86.8816 452.266 87.6386L454.83 99.3614ZM462.19 98.4746C465.642 98.4746 468.938 99.1748 472.132 100.594L477.005 89.6285C472.289 87.5322 467.333 86.4746 462.19 86.4746V98.4746ZM468.586 94.6522L461.481 187.23L473.446 188.149L480.551 95.5704L468.586 94.6522ZM462.533 191.108C464.464 193.893 465.747 197.256 466.274 201.346L478.176 199.814C477.432 194.041 475.542 188.81 472.395 184.271L462.533 191.108ZM467.789 196.539C466.778 197.65 464.847 198.918 461.358 199.956L464.781 211.458C469.495 210.055 473.668 207.905 476.66 204.621L467.789 196.539ZM461.403 199.943C457.937 200.945 454.181 201.465 450.105 201.465V213.465C455.21 213.465 460.096 212.813 464.736 211.471L461.403 199.943ZM450.105 201.465C446.946 201.465 444.197 201.14 441.819 200.545L438.909 212.187C442.391 213.058 446.136 213.465 450.105 213.465V201.465ZM441.843 200.551C439.62 199.986 438.394 199.243 437.734 198.624L429.518 207.37C432.081 209.778 435.346 211.281 438.886 212.181L441.843 200.551ZM439.625 203.077C439.67 199.707 439.962 196.723 440.469 194.103L428.687 191.823C428.023 195.257 427.679 198.963 427.627 202.917L439.625 203.077ZM439.945 190.28C436.377 183.144 432.911 175.26 429.55 166.618L418.366 170.968C421.841 179.904 425.455 188.133 429.212 195.646L439.945 190.28ZM429.564 166.656C426.216 157.873 421.935 146.197 416.717 131.615L405.418 135.658C410.649 150.276 414.962 162.038 418.352 170.93L429.564 166.656ZM416.712 131.601L413.489 122.666L402.201 126.737L405.423 135.672L416.712 131.601ZM406.858 118.783L406.419 118.856L408.392 130.693L408.831 130.62L406.858 118.783ZM401.459 125.575C402.462 133.024 403.55 144.123 404.72 158.938L416.683 157.994C415.508 143.121 414.4 131.759 413.352 123.974L401.459 125.575ZM404.72 158.94C405.89 173.715 406.459 184.33 406.459 190.912H418.459C418.459 183.823 417.856 172.807 416.682 157.992L404.72 158.94ZM406.459 190.912C406.459 195.14 405.245 197.375 403.664 198.72L411.44 207.86C416.401 203.639 418.459 197.622 418.459 190.912H406.459ZM403.63 198.749C401.995 200.161 398.669 201.465 392.391 201.465V213.465C399.882 213.465 406.663 211.985 411.473 207.831L403.63 198.749ZM392.391 201.465C391.016 201.465 389.377 201.199 387.437 200.539L383.574 211.9C386.517 212.901 389.469 213.465 392.391 213.465V201.465ZM387.437 200.539C385.407 199.849 383.621 198.997 382.054 198.003L375.628 208.137C378.064 209.683 380.722 210.931 383.574 211.9L387.437 200.539ZM382.198 198.097C380.55 196.985 379.942 196.261 379.793 196.027L369.686 202.496C371.099 204.704 373.226 206.519 375.484 208.043L382.198 198.097ZM380.739 199.262C380.739 196.368 381.18 193.675 382.034 191.151L370.667 187.304C369.373 191.127 368.739 195.124 368.739 199.262H380.739ZM382.034 191.151C382.885 188.635 383.778 187.695 384.22 187.38L377.27 177.598C374.001 179.921 371.964 183.472 370.667 187.304L382.034 191.151Z" fill="black" mask="url(#path-3-outside-2_20_14)"/>
</svg>
